<?xml version="1.0" encoding="utf-8"?>
<!-- Generator: Adobe Illustrator 27.5.0, SVG Export Plug-In . SVG Version: 6.00 Build 0)  -->
<svg version="1.1" xmlns="http://www.w3.org/2000/svg" xmlns:xlink="http://www.w3.org/1999/xlink" x="0px" y="0px"
	 viewBox="0 0 750 500" style="enable-background:new 0 0 750 500;" xml:space="preserve">
<g id="BACKGROUND">
</g>
<g id="OBJECTS">
	<g>
		<defs>
			<rect id="SVGID_1_" x="67.425" y="38.711" width="615.15" height="387.578"/>
		</defs>
		<clipPath id="SVGID_00000022558103115199930260000018151207854149237930_">
			<use xlink:href="#SVGID_1_"  style="overflow:visible;"/>
		</clipPath>
		<g style="clip-path:url(#SVGID_00000022558103115199930260000018151207854149237930_);">
			<g>
				<path style="fill:#6CABC9;" d="M623.499,327.359c0,0,1.394,17.423,7.666,40.422c6.272,22.999,1.394,57.149,0,66.209
					c-1.394,9.06-5.576,39.029-5.576,39.029l-36.938-2.091l-8.363-64.815l-6.969-46.695c0,0-2.091-16.03,10.454-21.605
					C596.318,332.238,623.499,327.359,623.499,327.359z"/>
				<path style="fill:#6CABC9;" d="M622.266,365.909c0,0,6.295,18.884,4.721,29.9c-1.574,11.016-18.491,24.786-18.491,24.786
					s14.163-7.868,15.737-6.688c1.574,1.18-14.557,15.344-14.557,17.311s15.344-4.721,15.344-4.721s-23.605,17.311-24.392,18.884
					c-0.787,1.574,16.917-11.016,16.13-6.688c-0.787,4.328-23.606,23.999-18.491,23.605c5.115-0.393,22.819-18.098,22.819-12.59
					c0,5.508-10.622,14.95-8.655,15.737c1.967,0.787-5.115,7.082-5.115,7.082l18.274,0.493c0,0,10.839-58.326,8.872-85.473
					c-1.967-27.146-6.295-31.474-6.295-31.474L622.266,365.909z"/>
				<path style="fill:#6CABC9;" d="M587.251,405.644l1.967-6.688c0,0,5.115,3.147,10.229,3.147c5.115,0-4.721,4.328-5.901,11.803
					c-1.18,7.475-9.442,25.573-9.442,25.573l-3.934-25.573L587.251,405.644z"/>
				<path style="fill:#6CABC9;" d="M598.409,362.206c0,0-2.788,16.727-6.273,34.847c-3.485,18.12-13.242,47.392-13.242,47.392
					l-1.394,12.545l4.182,17.423l-41.816-4.182c0,0-14.852-86.375-9.865-100.685c4.987-14.31,9.168-27.552,9.168-27.552
					L598.409,362.206z"/>
				<path style="fill:#6CABC9;" d="M546.335,363.941c0,0-0.346,1.107-0.804,2.948c-1.432,5.76-3.955,18.699-0.377,27.346
					c4.721,11.409,2.361,13.77-3.541,7.082s1.574,17.311,9.049,26.753c7.475,9.442-4.721,7.082-4.721,7.082
					s11.409,27.146,17.311,31.867c5.901,4.721,3.147,7.082,3.147,7.082l-26.533-3.868c0,0-23.038-102.356-5.727-106.29"/>
			</g>
			<path style="fill:#273E6C;" d="M615.466,266.727l7.8-41.404c0,0,14.944,6.938,19.568,28.792
				c3.034,14.338,7.766,52.258,7.858,60.609c0.07,6.404-13.612,27.677-22.961,35.982c-9.349,8.305-24.768,10.394-24.768,10.394
				L615.466,266.727z"/>
			<path style="fill:#273E6C;" d="M619.316,285.001l6.505-18.585l8.518,38.873c0,0-6.659,18.12-15.332,27.412
				C610.333,341.993,619.316,285.001,619.316,285.001z"/>
			<path style="fill:#273E6C;" d="M545.442,265.332c0,0-5.42,12.39-5.42,24.935c0,12.545-2.943,37.79-2.943,48.244
				s-8.363,27.181-8.363,27.181s14.636,25.787,37.635,23.696c22.999-2.091,32.756,2.091,43.907-4.879
				c11.151-6.969,22.07-16.495,22.07-16.495s-5.671-58.228-5.671-75.651c0-17.424,1.024-64.666,1.024-64.666
				s-20.909-12.543-29.737-12.543s-35.775-1.394-57.612,14.403C540.331,229.557,546.371,263.473,545.442,265.332z"/>
			<path style="opacity:0.22;fill:#273E6C;" d="M620.659,305.544l1.833,11.913c0,0,1.238,10.366-1.085,22.678
				c-2.323,12.312,3.02,3.949,3.02,10.454c0,6.505,0.465,23.231,0.465,23.231l7.436-5.806c0,0-2.79-49.019-5.577-54.362
				C623.962,308.309,620.659,305.544,620.659,305.544z"/>
			<path style="fill:#273E6C;" d="M545.907,302.656l7.434-19.204c0,0-4.887,39.278-7.744,51.417
				c-4.293,18.243-0.976,45.669-1.596,47.527c-0.62,1.858-15.286-16.706-15.286-16.706s8.518-22.92,8.363-27.181
				c-0.154-4.26,1.085-23.155,1.085-23.155L545.907,302.656z"/>
			<g>
				<path style="fill:#2D5098;" d="M145.409,212.211l-10.221-5.575c0,0-10.531-1.858-19.204,4.027
					c-12.83,8.706-19.61,19.966-24.47,27.567c-6.04,9.447-17.191,43.829-15.797,69.847c0.912,17.015,12.808,46.799,29.116,62.413
					c14.471,13.856,13.229-31.503,13.229-31.503l-2.456-42.149L145.409,212.211z"/>
				<path style="fill:#2D5098;" d="M117.056,271.345l-12.189-8.537c0,0-11.03,29.936-11.495,46.662
					c-0.243,8.749,9.274,24.675,19.872,44.538c7.88,14.769,4.666-54.14,4.666-54.14L117.056,271.345z"/>
			</g>
			<path style="fill:#FFB278;" d="M168.937,146.491c6.423,7.045,7.563,15.942,7.406,19.868c-0.157,3.926-0.314,6.595,0.314,9.422
				c0.628,2.827,1.884,10.207-0.314,15.075s-7.695,14.447-17.588,13.348c-9.893-1.099-15.861-13.976-15.861-13.976
				s-2.827-2.984-5.653-6.91c-2.827-3.926-9.609-19.709-3.769-31.25C140.069,139.035,162.745,139.7,168.937,146.491z"/>
			<path style="opacity:0.41;fill:#FFB278;" d="M164.329,199.492l0.707-2.882l2.69-8.063c0,0,0,8.303,2.831,11.322l-4.529,3.585
				L164.329,199.492z"/>
			<path style="fill:#FFB278;" d="M166.084,185.186c0,0-2.091,18.817,1.859,26.251c1.878,3.536-13.009,7.201-13.009,7.201
				l-11.848,0.232l-7.666-6.272c0,0,7.162-17.816,4.178-26.767C136.614,176.88,166.084,185.186,166.084,185.186z"/>
			<g>
				<path style="fill:#BC3D3A;" d="M115.212,348.822c0,0-12.226,17.981-11.015,40.914c1.211,22.933,8.749,81.461,8.749,81.461
					l43.35,0.398l6.327-69.947l5.958-29.682L115.212,348.822z"/>
				<path style="opacity:0.56;fill:#BC3D3A;" d="M136.611,363.207l-3.151,2.242c0,0-0.59,25.549,9.979,35.559
					c10.569,10.009,8.622,16.827,8.124,24.7c-0.234,3.702-1.204,9.697-2.419,16.155l-0.033-0.689l-16.14,16.269l13.686-3.167
					c-0.436,2.073-0.865,4.073-1.27,5.929l-20.724,11.875l18.229-0.74c-0.066,0.283-0.103,0.442-0.103,0.442l13.525-0.407
					l6.307-69.726l5.958-29.682L136.611,363.207z"/>
				<path style="fill:#BC3D3A;" d="M132.366,368.536c0,0,2.684,17.371,13.252,27.38c10.569,10.009,14.026,20.573,14.026,20.573
					l2.337,55.158l41.209-0.903c0,0-4.909-82.398-9.037-97.304c-4.128-14.906-4.77-22.346-4.77-22.346L132.366,368.536z"/>
				<path style="fill:#2D5098;" d="M103.528,282.54c0,0-1.002,28.182-0.752,41.47c0.198,10.53,0.137,25.6-0.183,36.2
					c-0.349,11.568,0.076,15.968,0.076,15.968s54.095,19.194,94.452-3.346l-5.754-83.052l-1.137-30.986l-14.532-42.88l-6.682-7.65
					c0,0-18.934,1.606-33.829-1.628c-14.895-3.234-29.411,38.993-29.411,38.993L103.528,282.54z"/>
				<polygon style="fill:#2D5098;" points="191.003,284.034 179.536,279.264 194.275,354.396 195.595,344.703 				"/>
				<path style="opacity:0.23;fill:#2D5098;" d="M107.156,290.714l-0.83,3.048l-3.36,12.334l-0.296,70.082
					c0,0,32.556,9.971,55.012,6.696c0,0-20.584-2.339-33.215-13.567c-12.631-11.228,6.254-1.426,1.403-8.889
					c-6.082-9.356-14.035-35.086-14.97-44.443c-0.936-9.356,7.485-25.73,7.485-25.73"/>
			</g>
			<g>
				<path style="fill:#FFB278;" d="M389.998,135.925l-41.528-0.494c0,0,6.427-14.09,4.723-33.716c-0.708-8.154,33.547-8.145,32.74,0
					C383.818,123.071,389.998,135.925,389.998,135.925z"/>
				<path style="fill:#FFB278;" d="M394.348,80.467c0,20.114-12.093,40.05-27.009,40.05c-14.917,0-27.009-19.936-27.009-40.05
					c0-20.114,12.093-32.788,27.009-32.788C382.256,47.678,394.348,60.353,394.348,80.467z"/>
				<g>
					<path style="fill:#FFB278;" d="M390.635,81.944c0,0,7.067-6.898,7.067-2.356s-0.673,13.629-5.048,13.629"/>
					<path style="fill:#FFB278;" d="M338.774,90.103c0.759,1.837,1.879,3.114,3.52,3.114"/>
					<path style="fill:#FFB278;" d="M344.313,81.944c0,0-7.067-6.898-7.067-2.356c0,2.839,0.263,7.453,1.528,10.514"/>
				</g>
				<line style="fill:#7F6760;" x1="381.841" y1="92.667" x2="392.223" y2="93.161"/>
				<path style="fill:#B64742;" d="M396.376,71.984l1.203,0.99c-1.73-8.487-3.461-13.019-3.461-13.019l1.978,1.813
					c-2.802-7.91-9.311-12.442-9.311-12.442l3.873,0.494c-3.813-3.304-9.228-4.253-11.513-4.516
					c-0.235-0.076-0.485-0.142-0.731-0.211c1.776-0.483,5.495-0.611,5.495-0.611c-4.082-1.148-8.37-0.813-11.393-0.286
					c-2.476-0.115-5.213,0.036-8.145,0.486c-2.77-0.686-8.407-1.69-13.704-0.2c0,0,4.292,0.146,5.857,0.723
					c0,0-7.663,0.329-12.607,4.614l3.873-0.494c0,0-6.509,4.532-9.311,12.442l1.978-1.813c0,0-1.73,4.532-3.461,13.019l1.401-1.153
					c0,0-2.06,7.416-0.577,13.019l0.412-0.989c0,0,1.608,7.53,5.112,11.862c0.471,0.971,0.986,1.855,1.537,2.655
					c0.501,2.052,1.594,5.966,3.074,7.978l0.33-1.895c0,0,2.142,2.554,2.142,6.344c0,3.79,1.318,1.154,1.318,1.154
					s0.412,6.427,2.554,8.734c0,0,0-3.049,0.659-3.131c0,0,3.049,2.472,3.049,4.614c0,0,1.566-2.389,0.412-3.461
					c0,0,1.813,1.648,1.813,3.378c0,0,0.136-0.046,0.324-0.194c0.251,0.528,0.439,0.854,0.439,0.854
					c-0.097-1.03,0.336-1.982,0.898-2.762c0.19,1.226,0.581,2.621,1.388,2.845c0,0,0-2.801,0.824-3.296c0,0,0.286,0.236,0.625,0.575
					c0.254,1.602-0.439,2.391-0.439,2.391c0.467-0.28,0.925-0.727,1.345-1.221c0.115,0.221,0.199,0.442,0.199,0.644
					c0,0,0.969-0.278,1.187-2.532c0.177,0.002,0.354,0.001,0.532,0c0.218,2.254,1.187,2.531,1.187,2.531
					c0-0.202,0.084-0.423,0.199-0.644c0.42,0.494,0.878,0.941,1.345,1.221c0,0-0.693-0.789-0.439-2.391
					c0.338-0.34,0.625-0.575,0.625-0.575c0.824,0.494,0.824,3.296,0.824,3.296c0.807-0.224,1.198-1.619,1.388-2.845
					c0.562,0.781,0.995,1.733,0.898,2.762c0,0,0.188-0.326,0.439-0.854c0.188,0.149,0.324,0.194,0.324,0.194
					c0-1.73,1.813-3.378,1.813-3.378c-1.154,1.071,0.412,3.461,0.412,3.461c0-2.142,3.049-4.614,3.049-4.614
					c0.659,0.082,0.659,3.131,0.659,3.131c2.142-2.307,2.554-8.734,2.554-8.734s1.318,2.637,1.318-1.154
					c0-3.79,2.142-6.344,2.142-6.344l0.329,1.895c2.06-2.801,3.378-9.311,3.378-9.311c4.367-3.873,6.345-13.183,6.345-13.183
					l0.412,0.989c1.058-3.998,0.314-8.904-0.2-11.396C396.501,72.952,396.442,72.465,396.376,71.984z"/>
				<path style="opacity:0.27;fill:#B64742;" d="M379.781,106.839c0,0,0.422-5.505,0.384-6.545c-0.056,0.01-0.111,0.02-0.166,0.03
					c-0.911,0.989-6.934,4.354-6.934,4.354l0.709-3.545l-3.55-0.392l-0.814-0.29c-3.517-0.563-6.787-1.717-9.787-3.291
					c0.184,1.39,1.126,9.277-1.681,5.391c-2.403-3.327-3.908-7.464-4.569-9.542c-0.171-0.139-0.341-0.278-0.51-0.42l-0.767,6.01
					c0,0-5.863-5.883-7.564-15.337c-3.551-5.243-5.777-10.74-6.468-15.073c-0.346,1.423-0.706,3.012-1.068,4.785l1.401-1.153
					c0,0-2.06,7.416-0.577,13.019l0.412-0.989c0,0,1.608,7.53,5.112,11.862c0.471,0.971,0.986,1.855,1.537,2.655
					c0.501,2.052,1.594,5.966,3.074,7.978l0.33-1.895c0,0,2.142,2.554,2.142,6.344c0,3.79,1.318,1.154,1.318,1.154
					s0.412,6.427,2.554,8.734c0,0,0-3.049,0.659-3.131c0,0,3.049,2.472,3.049,4.614c0,0,1.566-2.389,0.412-3.461
					c0,0,1.813,1.648,1.813,3.378c0,0,0.136-0.046,0.324-0.194c0.251,0.528,0.439,0.854,0.439,0.854
					c-0.097-1.03,0.336-1.982,0.898-2.762c0.19,1.226,0.581,2.621,1.388,2.845c0,0,0-2.801,0.824-3.296c0,0,0.286,0.236,0.625,0.575
					c0.254,1.602-0.439,2.391-0.439,2.391c0.467-0.28,0.925-0.727,1.345-1.221c0.115,0.221,0.199,0.442,0.199,0.644
					c0,0,0.969-0.278,1.187-2.532c0.177,0.002,0.354,0.001,0.532,0c0.218,2.254,1.187,2.531,1.187,2.531
					c0-0.202,0.084-0.423,0.199-0.644c0.42,0.494,0.878,0.941,1.345,1.221c0,0-0.693-0.789-0.439-2.391
					c0.338-0.34,0.625-0.575,0.625-0.575c0.824,0.494,0.824,3.296,0.824,3.296c0.807-0.224,1.198-1.619,1.388-2.845
					c0.562,0.781,0.995,1.733,0.898,2.762c0,0,0.188-0.326,0.439-0.854c0.188,0.149,0.324,0.194,0.324,0.194
					c0-1.73,1.813-3.378,1.813-3.378c-1.154,1.071,0.412,3.461,0.412,3.461c0-2.142,3.049-4.614,3.049-4.614
					c0.659,0.082,0.659,3.131,0.659,3.131c2.142-2.307,2.554-8.734,2.554-8.734s1.318,2.637,1.318-1.154
					c0-3.79,2.142-6.344,2.142-6.344l0.329,1.895c1.983-2.697,3.275-8.812,3.369-9.267c-0.128,0.06-0.254,0.113-0.381,0.172
					C387.649,101.571,379.781,106.839,379.781,106.839z"/>
			</g>
			<path style="fill:#E5BA70;" d="M250.798,360.685l-10.016,115.007l-37.469-4.887c0,0-8.146-66.792-8.96-90.414
				c-0.814-23.622-2.444-29.323,4.073-49.687c6.516-20.364,50.502-1.629,50.502-1.629L250.798,360.685z"/>
			<path style="opacity:0.49;fill:#E5BA70;" d="M225.787,343.852c0,0-0.533,3.481-0.465,4.646
				c0.602,10.212,9.292,34.614,9.292,34.614l1.751,25.039l-6.802,10.412l6.765-3.358l-0.022,4.2l-4.649,10.769l-6.263,4.257
				l7.449-1.798l3.417-4.484l-0.129,24.467l-11.251,7.246l-7.706,8.477l10.789-4.367l8.116-1.457l-0.012,2.229l-7.077,9.503
				l7.022,0.9l-0.003,0.657l4.773-0.111l6.842-73.298l4.181-37.634L225.787,343.852z"/>
			<path style="fill:#E5BA70;" d="M270.838,323.013l20.244-2.741c0,0,8.657,23.998,9.995,48.398c1.337,24.4-6.884,82.77-6.884,82.77
				l-2.997,19.743l-37.502,0.424l-5.115-48.666l-6.385-42.07c0,0-19.97-25.559-18.024-52.924
				C225.502,309.242,270.838,323.013,270.838,323.013z"/>
			<path style="opacity:0.49;fill:#E5BA70;" d="M282.315,471.776l-11.77,0.619c0,0,13.707-5.224,14.945-11.925
				c3.949-21.372-8.75-1.704-4.414-17.191c4.336-15.487,10.686-37.169,10.686-46.462s-16.935,3.38-11.925-1.239
				c4.956-4.569,12.39-14.403,12.39-24.315s-17.423-54.824-17.423-54.824l16.029,0.697c0,0,10.548,39.021,10.454,55.289
				c-0.232,40.189-10.09,98.757-10.09,98.757L282.315,471.776z"/>
			<g>
				<path style="fill:#29448D;" d="M382.672,309.161l-62.568-4.336c0,0-9.912,23.231-8.053,47.391
					c1.858,24.16,10.841,75.268,10.841,75.268l4.646,43.364l37.169-0.62c0,0,4.956-15.487,4.956-24.16s3.407-43.983,3.407-43.983
					l1.549-21.992l4.027-20.133L382.672,309.161z"/>
				<path style="opacity:0.36;fill:#29448D;" d="M337.759,355.932c0,0,23.85,6.814,36.859-1.549c0,0,2.168,9.912,1.858,13.938
					c-0.31,4.027-2.788,24.16-2.788,24.16s-2.478,24.47-2.788,34.072c-0.31,9.602-2.168,30.045-2.788,35.62
					c-0.62,5.575-3.407,8.053-3.407,8.053l-17.346,1.549c0,0,6.195-7.744,3.407-7.434c-2.788,0.31-8.053,2.788-6.505-2.788
					c1.549-5.575,1.549-11.77,1.549-11.77s17.036-8.673,14.248-12.39c-2.788-3.717-22.921,12.39-25.399,8.053
					c-2.478-4.336,19.204-19.204,19.204-19.204l-4.027-12.699l3.098-8.983c0,0,8.983-14.558,7.124-17.965
					c-1.859-3.407-16.107,10.221-17.036,7.434c-0.929-2.788,10.531-11.77,10.531-11.77l-2.168-8.053c0,0-16.107,12.39-16.107,8.673
					c0-3.717,8.363-13.319,8.363-13.319S321.343,358.41,337.759,355.932z"/>
				<path style="fill:#29448D;" d="M432.541,305.134c0,0,2.168,37.789,1.549,52.037s-2.788,35.001-2.788,35.001l-2.168,32.833
					l-2.788,26.328l-3.097,4.956l1.549,4.646v11.77l-42.745-0.929l-1.858-48.939l-2.478-35.001l-3.097-27.567
					c0,0-5.885-13.629-5.885-25.709s1.239-28.496,1.239-28.496l59.78-0.929H432.541z"/>
				<path style="opacity:0.36;fill:#29448D;" d="M397.54,430.58c0,0,18.585-5.575,19.824-14.248
					c1.239-8.673,8.673-42.125,8.673-42.125l-0.62-18.585c0,0-13.629,2.478-13.009,0c0.62-2.478,8.673-12.39,8.673-19.204
					c0-6.814,0.62-29.735,0.62-29.735l10.841-1.549c0,0,3.407,65.356,0.31,81.462c-3.097,16.107-3.717,38.408-3.717,38.408
					l-2.788,26.328l-1.549,21.372l-16.107-0.62l-7.434-13.009c0,0,16.107,0.62,15.487-4.336
					C416.124,449.784,396.92,437.394,397.54,430.58z"/>
			</g>
			<g>
				<path style="fill:#6CABC9;" d="M387.241,125.715c0,0,28.092,3.961,34.846,10.222c9.525,8.828,1.161,80.92,0.542,98.885
					s12.39,66.905,11.77,79.294c0,0-27.877,6.814-43.984,3.097c-16.107-3.717-60.71-11.77-73.099-5.575
					c0,0-4.336-19.204-4.956-45.223s-2.478-73.719-5.575-79.914c-3.097-6.195,4.336-45.223,4.336-45.223
					s29.408-11.287,39.028-15.487C355.647,123.392,370.05,121.998,387.241,125.715z"/>
			</g>
			<path style="fill:#6CABC9;" d="M404.973,258.363l4.646,8.673l-16.107,0.929c0,0-36.236,14.099-67.834,10.222
				c-13.394-1.644-18.585-21.682-18.585-21.682l51.108,1.239L404.973,258.363z"/>
			<path style="fill:#7297F4;" d="M289.439,203.538c0,0,2.788,33.452,2.788,44.603c0,11.151-1.394,39.492-1.394,39.492
				s4.181,33.452,4.181,39.492s-11.615,20.908-24.16,23.231c-12.545,2.323-46.926-1.858-46.926-1.858s-24.16-1.859-27.877-6.505
				c-3.717-4.646,0.465-22.302,0.465-37.169c0-14.868,4.646-44.138,4.646-49.249s-0.465-31.129-0.465-31.129l7.434-17.191
				L289.439,203.538z"/>
			<path style="opacity:0.36;fill:#7297F4;" d="M295.994,235.012l-13.872-5.636l0.818,5.317c0,0,2.836,26.47,2.836,33.406
				c0,6.936-1.694,21.311-1.261,25.212c0.434,3.902-1.142,23.595-1.576,28.364c-0.434,4.769,2.858,34.706,12.075,5.451
				l-4.181-39.492l1.394-39.492L295.994,235.012z"/>
			<path style="fill:#FFB278;" d="M273.181,97.284c5.996,9.182,7.683,18.739,7.496,23.424c-0.187,4.685-0.375,7.87,0.375,11.243
				c0.75,3.373,2.249,12.18-0.375,17.989c-2.623,5.809-9.182,17.24-20.988,15.928c-11.806-1.312-18.926-16.678-18.926-16.678
				s-3.373-3.56-6.746-8.245c-3.373-4.685-11.466-23.519-4.497-37.291C237.389,88.102,267.184,88.102,273.181,97.284z"/>
			<path style="fill:#FFB278;" d="M267.559,146.193c0,0-1.312,12.555,0.75,16.865c2.061,4.31-11.618,4.123-11.618,4.123l-9.37-1.686
				l-10.869-8.058c0,0,3.935-2.811,0.375-13.492C233.267,133.263,267.559,146.193,267.559,146.193z"/>
			<path style="fill:#273E6C;" d="M263.436,151.44c0,0,6.93-3.96,7.069-11.457c0.16-8.651,10.526-5.614,8.331-18.904
				c-0.337-2.044,3.479-5.848,4.005-8.171c1.029-4.538-0.85-7.296-3.204-7.369c-5.127-0.16,0.32-10.894-7.53-15.22
				c-13.702-7.55-24.832-4.646-31.561-1.762c-6.814,2.92-13.79,8.307-16.501,16.341c-4.326,12.816,1.546,4.379,1.546,4.379
				c-0.549,0.005-4.477,18.29-0.905,15.166c2.771-2.424,1.842-2.424,1.842-2.424s-1.887,6.249,0,12.516
				c2.656,8.821,8.987,17.091,13.297,17.841c4.31,0.749,6.184-0.187,9.182-0.937C252.006,150.69,263.436,151.44,263.436,151.44z"/>
			<path style="fill:#6CABC9;" d="M378.645,294.293l-50.643-5.266c0,0,48.785,22.611,66.13,20.753
				c17.346-1.859,37.169-23.541,37.169-23.541l-6.814-11.77L378.645,294.293z"/>
			<path style="opacity:0.41;fill:#FFB278;" d="M266.34,160.245l0.844-3.439l3.21-9.621c0,0,0,9.908,3.378,13.511l-5.404,4.279
				L266.34,160.245z"/>
			<g>
				<path style="fill:#FFB278;" d="M267.138,163.581c0,0,25.554,3.717,31.594,16.726c6.04,13.009,30.2,57.612,30.2,57.612
					s26.948,4.182,40.886,9.292c13.938,5.111,27.412,0.929,27.412,0.929s14.403-6.969,22.302-6.505
					c7.898,0.465,3.717,3.252,3.717,3.252s3.252,4.181,9.292,3.717s2.788,14.403-7.898,17.191
					c-10.686,2.788-21.837-1.858-27.412-0.929c-5.575,0.929-32.625,8.577-53.895,8.363c-17.495-0.176-27.412-1.394-33.917-9.292
					c-6.505-7.898-14.403-21.837-20.908-35.775c-6.505-13.938-21.372-26.018-21.372-26.018V163.581z"/>
				<path style="fill:#7297F4;" d="M388.438,266.829c-1.812-5.519-1.973-12.782-1.869-17.111c-4.799,0.174-10.73-0.298-16.751-2.506
					c-13.939-5.111-40.886-9.292-40.886-9.292s-24.16-44.603-30.2-57.612c-6.04-13.009-31.594-16.726-31.594-16.726v38.563
					c0,0,1.543,7.224,8.048,21.162c6.505,13.938,27.727,32.733,34.232,40.632c6.505,7.898,16.422,9.117,33.917,9.292
					C358.812,273.386,377.341,269.381,388.438,266.829z"/>
			</g>
			<g>
				<path style="fill:#273E6C;" d="M489.41,139.506c8.377,0.22,15.904,5.14,19.492,12.712c1.972,4.162,3.553,9.191,3.553,14.615
					c0,14.403-9.113,33.213-20.443,34.382c-22.534,2.323-30-18.949-31.362-26.948c-1.858-10.919,0.861-23.944,7.811-29.62
					C473.89,140.212,482.409,139.323,489.41,139.506z"/>
				<path style="opacity:0.19;fill:#273E6C;" d="M478.538,139.421l-6.272,4.414c0,0,6.505,7.898,15.565,6.737
					c9.06-1.161,12.312-10.454,12.312-10.454L478.538,139.421z"/>
				<path style="fill:#273E6C;" d="M496.176,145.093c0,0,5.493-3.874,6.016-6.837c0.82-4.649-1.914-15.314-10.392-13.947
					c-8.477,1.367-12.662-1.14-16.408,0c-6.29,1.914-12.306,15.314,0.273,20.783C488.245,150.563,496.176,145.093,496.176,145.093z"
					/>
				<path style="opacity:0.19;fill:#273E6C;" d="M460.65,174.268c1.362,7.999,8.828,29.271,31.362,26.948
					c7.907-0.815,14.729-10.223,18.133-20.729c-3.962,5.861-13.849,7.583-23.011,5.164c-29.039-7.666-18.672-41.003-18.672-41.003
					l-2.927,3.17C460.787,154.349,459.081,165.05,460.65,174.268z"/>
			</g>
			<path style="fill:#7297F4;" d="M226.895,164.932c0,0,6.371-10.119,10.494-9.182c11.615,2.64,29.794,1.056,29.794,1.056
				s4.683,4.184,7.019,8.856C274.202,165.662,250.255,169.604,226.895,164.932z"/>
			<g>
				<path style="opacity:0.41;fill:#FFB278;" d="M275.009,133.664l-3.272-2.666c0,0-2.789,2.433-2.556,6.629
					c0.233,4.196,2.797,8.276,4.896,5.711C276.174,140.774,275.009,133.664,275.009,133.664z"/>
				<path style="fill:#FFB278;" d="M271.737,130.998c0.551-1.337,3.56-4.685,5.247-2.436c1.687,2.249-0.846,15.151-2.907,14.776
					C272.015,142.964,268.759,138.221,271.737,130.998z"/>
			</g>
			<path style="fill:#EF915E;" d="M447.408,246.283c0,0-8.828,31.594-38.563,52.037c0,0-8.363,9.292-21.372,7.434
				c-13.009-1.858-59.471-16.726-59.471-16.726s-13.474-1.858-15.797-5.111c-2.323-3.252-5.73-12.235,0.155-16.571l8.208,3.562
				l1.536,0.335c1.931,0.421,3.728,1.274,5.357,2.393c1.131,0.777,3.213,1.783,7.046,2.847c8.363,2.323,50.178,1.394,55.754,1.394
				c5.575,0,22.302-21.372,32.988-32.988C433.934,233.274,447.408,246.283,447.408,246.283z"/>
			<path style="opacity:0.17;fill:#EF915E;" d="M438.113,266.64l-1.347-15.005l-4.735,12.053c0,0-31.425,38.743-39.173,38.743
				s-34.438-4.305-34.438-4.305l0.286,0.293c11.541,3.37,23.208,6.54,28.767,7.334c13.009,1.858,21.372-7.434,21.372-7.434
				C422.776,288.742,432.118,276.717,438.113,266.64z"/>
			<g>
				<path style="fill:#EF915E;" d="M539.8,243.188l14.163,47.604c0,0,15.344,3.541,27.933,8.262c12.59,4.721,29.9,2.361,29.9,2.361
					s2.361-5.508,9.049-7.082c6.688-1.574,9.442-7.868,9.442-4.721c0,0,1.573,4.526-2.454,6.694c0,0,2.633,1.394,6.195,0.774
					c0,0,1.859,2.788,0.31,8.208c-1.549,5.421-1.858,9.757-5.111,11.151c-3.252,1.394-12.39,1.858-15.023,0.31
					c0,0-0.774-1.239-6.35-0.619c-5.575,0.619-49.404,6.505-62.258,0.619c0,0-17.036-19.669-24.315-52.037
					C514.003,232.344,539.8,243.188,539.8,243.188z"/>
				<path style="fill:#ED993E;" d="M479.003,204.444c-10.79,1.354-33.023,4.862-41.279,11.542c0,0,6.653,26.613,6.653,51.008
					s4.436,60.433,4.436,60.433h69.304c0,0,5.544-45.464,5.544-56.552c0-11.089,10.398-47.978,10.398-47.978
					s-8.735-14.118-28.695-15.782c-9.429-0.786-14.485-1.576-17.195-2.19C485.16,204.242,482.065,204.06,479.003,204.444z"/>
				<path style="fill:#ED993E;" d="M515.898,236.5l13.592-18.094c0,0,15.177,7.744,14.684,38.054c0,0-19.96,10.534-26.613,19.405
					C510.909,284.736,515.898,236.5,515.898,236.5z"/>
				<path style="fill:#ED993E;" d="M453.248,253.133l-16.061,18.936c0,0-11.851-23.455-18.314-24.48c0,0,8.871-26.613,18.851-31.603
					S453.248,253.133,453.248,253.133z"/>
				<path style="opacity:0.48;fill:#EF915E;" d="M551.643,289.933l5.18,1.451l-7.667,26.315c0,0-1.696,0.134-3.56-0.949
					c-1.864-1.084-3.413-5.343-3.413-5.343L551.643,289.933z"/>
			</g>
			<path style="opacity:0.44;fill:#ED993E;" d="M485.465,211.585c0,0-5.532-7.543-7.044-7.582c-8.439-0.218-29.341,6.46-29.341,6.46
				s2.625,0.277,20.165,10.149c13.584,7.647,34.643,1.936,50.305-7.15"/>
			<path style="fill:#BC3D3A;" d="M493.242,321.983c6.315,0.039,25.237-0.168,25.237-0.168s6.035,20.848,11.521,47.732
				s3.841,95.463,3.841,95.463l0.549,6.035l-100.401,0.549c0,0,2.195-34.016,2.195-45.537s1.646-55.413,6.035-73.518
				s5.706-29.39,5.706-29.39S451.332,321.726,493.242,321.983z"/>
			<path style="opacity:0.64;fill:#BC3D3A;" d="M521.793,466.702c0,0,0.348-11.847-8.014-14.634
				c-8.362-2.787,6.969-19.164,6.969-33.101c0-13.937-1.742-19.512-8.362-17.073c-6.62,2.439-9.455-12.743-12.94-19.712
				c-3.484-6.969-36.008,3.485-45.3-9.292c-11.459-15.756,5.577,3.949,24.392,3.949c18.815,0,35.837-7.303,40.366-17.492
				c5.008-11.267-0.787-31.92-0.787-31.92s5.418,6.174,6.464,14.537c1.045,8.362,7.665,32.752,9.059,57.839
				c1.394,25.087,0.751,71.241,0.751,71.241l-12.946,0.187L521.793,466.702z"/>
			<path style="opacity:0.36;fill:#7297F4;" d="M203.485,292.28l-6.737,9.757l-0.232,2.788c0,0,2.323,6.04,11.383,7.201
				c9.06,1.161,55.057,2.555,62.026-0.929l1.626-4.182c0,0,20.908,4.491,23.928-0.077c3.02-4.569-9.525-8.286-9.525-8.286
				L203.485,292.28z"/>
			<polygon style="opacity:0.47;fill:#ED993E;" points="520.12,266.726 523.661,270.875 521.514,297.158 			"/>
			<path style="opacity:0.19;fill:#273E6C;" d="M244.012,87.245c-1.258,0.411-2.415,0.862-3.466,1.312
				c-6.814,2.92-13.79,8.307-16.501,16.341c-3.955,11.718,0.612,5.673,1.424,4.55c-0.84,1.802-4.158,17.946-0.783,14.995
				c0.85-0.743,1.35-1.257,1.637-1.614c-0.431,1.876-1.279,6.78,0.205,11.707c2.656,8.821,8.987,17.091,13.297,17.841
				c4.31,0.749,6.184-0.187,9.182-0.937c2.998-0.749,14.429,0,14.429,0s6.93-3.96,7.069-11.457
				C235.428,143.603,225.09,112.822,244.012,87.245z"/>
			<polygon style="opacity:0.5;fill:#6CABC9;" points="418.137,191.691 425.551,191.027 422.629,234.822 			"/>
			<path style="fill:#EF915E;" d="M165.852,210.972l50.488,71.551c0,0,36.395,2.788,48.01,4.182l4.956,0.465l6.04-3.717
				c0,0,7.589-3.136,10.841-2.478c1.834,0.371,5.885,1.858,7.434,3.407c1.549,1.549,0.62,4.801,0.62,4.801s2.168,4.801,0.929,5.885
				c-1.239,1.084,1.239,2.478,0.31,5.421c-0.929,2.942,3.562,6.195-2.323,6.35l-8.678,0.335c-1.158,0.043-0.455-0.02-1.601-0.191
				c-3.485-0.52-10.954-1.826-12.952-3.706c0,0-12.235-0.31-20.133,0.929c-7.898,1.239-18.894-7.744-18.894-7.744
				s-19.204,0.774-27.412-4.182c-8.208-4.956-22.766-24.16-22.766-24.16l-23.695-29.58L165.852,210.972z"/>
			<path style="fill:#2D5098;" d="M269.306,287.169c-30.742-7.666-53.973-11.615-53.973-11.615s-16.029-38.098-21.14-50.178
				c-5.111-12.08-22.766-16.726-22.766-16.726l-10.686,2.323l-8.828,27.567l-7.201-4.569c0,0,45.497,65.54,57.112,72.974
				c8.076,5.169,58.596,3.463,67.172,1.597L269.306,287.169z"/>
			<path style="opacity:0.51;fill:#2D5098;" d="M200.499,240.296c0.121-0.314,0.189-0.499,0.189-0.499l-0.308,0.195l-1.507-3.857
				l-3.653,3.517l-0.207,3.732l-7.679,4.854l-60.09,32.549l-22.951,13.353l-2.087,15.857l22.951-14.188
				c0,0,26.707-6.259,45.068-14.605c11.894-5.406,21.155-21.176,26.208-31.62l0.275-0.327c0,0,2.435-3.788,5.547-4.464
				L200.499,240.296z"/>
			<g>
				<path style="fill:#FFB278;" d="M196.502,187.045c-11.851,14.708-26.697,57.791-26.697,57.791s-29.462,15.233-36.266,20.189
					c-6.804,4.957-26.573,8.777-29.707,17.137c-1.294,3.454-1.934,21.275,2.232,20.089c2.385-0.679,10.506-4.115,18.09-10.264
					c6.946-5.632,37.015-11.074,57.322-28.471C201.784,246.12,208.353,172.337,196.502,187.045z"/>
				<path style="fill:#FFB278;" d="M109.786,297.664l-3.72,4.588c0,0-3.1,3.1-3.1,3.844c0,0.744-1.364-2.232-0.62-4.588
					c0.744-2.356-2.356-2.108-1.116-6.076c1.24-3.968-1.984-4.712-0.372-7.316c1.612-2.604-2.604-4.092,3.348-8.185
					c5.952-4.092,8.433-4.464,8.433-4.464l-0.496,9.921L109.786,297.664z"/>
			</g>
			<polygon style="opacity:0.64;fill:#BC3D3A;" points="521.824,317.618 521.824,327.216 522.659,335.562 467.993,332.641 
				445.46,336.814 447.925,323.149 			"/>
			<path style="fill:#7297F4;" d="M272.456,166.174l-33.581-3.175c0,0-17.505,3.606-25.884,6.052
				c-8.38,2.446-10.242-0.668-21.342,13.109c-11.1,13.777-31.221,64.097-31.221,64.097s-43.656,23.813-43.836,25.553l5.653,21.326
				l8.226-2.401c10.141-4.139,28.14-5.08,44.764-18.142c18.815-14.784,30.335-43.007,30.335-43.007l17.922-7.622l61.103-8.744
				L272.456,166.174z"/>
			<path style="fill:#273E6C;" d="M161.902,195.872c0,0,5.802-7.078,5.918-13.36c0.134-7.25,8.641,1.411,5.429-9.571
				c-0.487-1.666-4.83-5.626-1.204-16.193c1.266-3.688,2.88-5.116-2.176-10.671c-9.428-10.36-47.847-6.036-42.305,23.412
				c0.571,3.032-0.038,3.206,1.544,8.458c2.226,7.392,6.233,13.356,10.492,18.389c2.368,2.799,7.864,2.788,10.454,2.788
				C157.256,199.124,161.902,195.872,161.902,195.872z"/>
			<g>
				<path style="fill:#B64742;" d="M173.131,160.794c3.252-4.027,6.66,0,10.686-3.407c4.027-3.407,4.182-10.067-1.394-12.545
					c-5.575-2.478-4.027-2.943-1.549-6.04c2.478-3.097-1.549-11.306-10.841-7.434c-7.544,3.144-7.279,2.323-12.235-2.478
					c-4.956-4.801-13.938-3.562-15.952,2.323c-2.013,5.885-8.527,0.594-15.642,3.097c-8.363,2.943-7.279,10.531-5.575,13.474
					c1.704,2.943,2.633,6.814-2.013,11.461c-4.646,4.646-3.562,12.545,1.549,15.177c5.111,2.633,4.182,3.717,0,11.151
					c-4.49,7.982,0.31,17.5,5.421,17.655c5.111,0.155,9.137-1.084,9.602,3.407c0.465,4.491,6.35,8.053,10.221,5.575
					c3.872-2.478,1.394-7.898,5.111-7.898c3.717,0,8.053,4.956,10.222,0c2.168-4.956,1.084-7.589,6.505-6.66
					s6.35-8.828,2.943-15.332c-3.407-6.505,3.778-8.286,3.872-11.77C174.215,164.82,169.878,164.82,173.131,160.794z"/>
				<g>
					<path style="opacity:0.41;fill:#FFB278;" d="M171.594,177.217l-2.742-2.234c0,0-2.337,2.039-2.142,5.555
						c0.195,3.516,2.344,6.935,4.102,4.786C172.571,183.175,171.594,177.217,171.594,177.217z"/>
					<path style="fill:#FFB278;" d="M168.852,174.983c0.462-1.12,2.98-3.923,4.397-2.042c2.514,3.34-0.709,12.697-2.437,12.383
						C169.085,185.01,166.357,181.035,168.852,174.983z"/>
				</g>
				<path style="opacity:0.27;fill:#B64742;" d="M169.968,191.729c0.48-9.106-15.52-1.79-21.795-5.974
					c-11.14-7.427,4.051-25.272-1.525-25.581c-5.575-0.31-12.686,3.643-8.969-14.942c1.362-6.809,6.619-18.566,13.626-19.243
					c-4.086-0.37-8.179,1.485-9.458,5.224c-2.013,5.885-8.527,0.594-15.642,3.097c-8.363,2.943-7.279,10.531-5.575,13.474
					c1.704,2.943,2.633,6.814-2.013,11.461c-4.646,4.646-3.562,12.545,1.549,15.177c5.111,2.633,4.182,3.717,0,11.151
					c-4.49,7.982,0.31,17.5,5.42,17.655c5.111,0.155,9.137-1.084,9.602,3.407c0.465,4.491,6.35,8.053,10.221,5.575
					c3.872-2.478,1.394-7.898,5.111-7.898c3.717,0,8.053,4.956,10.222,0c2.112-4.827,1.156-7.44,6.112-6.715
					C171.582,197.541,169.821,194.514,169.968,191.729z"/>
			</g>
			<path style="fill:#EF915E;" d="M472.145,309.08l-4.895,0.903l-6.346-3.166c0,0-10.316-2.346-11.944-1.423
				c-1.628,0.922-6.622,2.456-8.028,4.136c-1.405,1.68-1.116,4.92-1.116,4.92s-1.271,4.933,0.06,5.903
				c1.33,0.97-1.477,2.619-0.29,5.468c1.187,2.849-2.535,6.445,3.34,6.077l9.136-0.478c1.157-0.06,2.302-0.225,3.428-0.497
				c3.426-0.828,14.729-3.146,12.572-4.841C468.062,326.081,483.591,306.661,472.145,309.08z"/>
			<path style="fill:#273E6C;" d="M557.987,249.07l15.565,0.619c0,0-21.625,63.626-36.18,71.111
				c-21.427,11.02-70.914,7.718-70.914,7.718l-1.858-21.372c0,0,1.6,1.239,18.12-3.717c18.585-5.575,38.098-12.08,38.098-12.08
				s6.505-52.966,19.514-61.794C553.341,220.729,557.987,249.07,557.987,249.07z"/>
			<path style="fill:#FFB278;" d="M566.771,158.784c-6.133,6.726-7.221,15.221-7.071,18.969c0.15,3.748,0.3,6.297-0.3,8.996
				c-0.6,2.699-1.799,9.746,0.3,14.394c2.099,4.648,7.347,13.794,16.792,12.744c9.446-1.05,15.143-13.344,15.143-13.344
				s2.699-2.849,5.397-6.597c2.699-3.748,9.174-18.818,3.598-29.836C594.334,151.665,572.683,152.3,566.771,158.784z"/>
			<path style="fill:#FFB278;" d="M591.071,184.848l8.219,3.945c0,0-3.288,26.957,0.329,35.833
				c3.616,8.876-17.095,4.931-17.095,4.931l-12.492-5.26c0,0,2.959-13.15,2.63-21.368
				C572.333,194.71,591.071,184.848,591.071,184.848z"/>
			<g>
				<path style="fill:#ED993E;" d="M569.109,171.481c0.355-1.09-0.991-2.069-1.299-3.173c-0.494-1.774-3.189-3.031-5.504-3.185
					c-3.56-0.237-5.33-10.504,3.946-15.287c17.671-9.111,41.817-2.205,44.117,19.768c0.602,5.753-0.654,11.52-1.029,17.292
					c-0.832,12.804,7.482,19.131,12.852,29.707c2.226,4.384,3.122,9.972,0.377,14.052c-1.471,2.186-3.833,3.707-5.064,6.036
					c-6.032,11.415,7.836,21.738-7.704,30.675c-16.098,9.248-26.412-6.026-41.188-7.851c-16.855-2.081-17.452-26.988-7.87-37.026
					c8.037-8.42,14.436-21.69,11.764-25.971c-3.362-5.387-4.254-10.37-0.694-15.117C574.296,178.094,565.678,182,569.109,171.481z"
					/>
				<path style="opacity:0.23;fill:#ED993E;" d="M594.298,256.505c-31.826-6.505-40.286-23.65-19.282-47.855
					c12.201-14.06,7.049-26.644,3.252-29.968c-4.778-4.183-5.084-7.333-3.051-12.908c1.416-3.884-5.701,2.35-5.464-8.711
					c0.025-1.146-1.548-1.693-2.162-2.661c-0.855-1.348-3.182-1.842-5.258-1.61c-4.671,5.135-2.96,12.135-0.027,12.331
					c2.314,0.154,5.01,1.411,5.504,3.185c0.308,1.104,1.654,2.083,1.299,3.173c-3.431,10.518,5.187,6.613,2.707,9.92
					c-3.56,4.747-2.669,9.729,0.694,15.117c2.672,4.281-3.727,17.551-11.764,25.971c-9.582,10.039-8.985,34.945,7.87,37.026
					c14.776,1.825,25.09,17.099,41.188,7.851c12.477-7.175,6.003-15.244,6.085-24.055
					C613.347,254.646,604.253,258.539,594.298,256.505z"/>
			</g>
			<g>
				<g>
					<path style="opacity:0.41;fill:#FFB278;" d="M572.956,182.028l3.344-0.473c0,0,0.905,2.82-0.99,5.597
						c-1.895,2.778-5.338,4.512-5.715,1.888C569.217,186.417,572.956,182.028,572.956,182.028z"/>
					<path style="fill:#FFB278;" d="M576.299,181.555c0.175-1.144-0.416-5.332-4.308-3.386c-3.57,1.785-3.964,10.275-2.398,10.871
						S575.352,187.734,576.299,181.555z"/>
				</g>
			</g>
			<path style="opacity:0.72;fill:#7297F4;" d="M246.695,187.277l-44.811-1.935c0,0,25.709,24.911,53.981,28.134
				c25.393,2.896,60.091-17.639,60.091-17.639L246.695,187.277z"/>
			<g>
				<path style="fill:#FFB278;" d="M272.547,187.131c-6.575,1.038-39.565-4.849-39.565-4.849l-16.265-7.614
					c0,0-11.074-10.728-14.881-10.036c-3.807,0.692-11.42,1.384-13.151,7.268c-1.73,5.883-1.384,13.497-1.384,13.497l6.921-5.537
					c0,0,6.69,1.475,15.264,9.92c5.668,5.583,31.545,3.921,34.437,5.849c7.268,4.845,6.326,3.604,18.784-0.895
					c12.458-4.499,25.645,4.506,25.645,4.506l31.052-15.613l30.895-15.534C350.299,168.094,279.122,186.093,272.547,187.131z"/>
				<path style="fill:#FFB278;" d="M406.677,144.377l7.124-12.08c0,0,16.107,4.336,29.735,18.585s35.621,34.382,35.621,34.382
					s21.062,7.124,29.735,9.292c8.673,2.168,10.841,2.168,12.39,1.858c1.549-0.31,11.925,1.859,15.177,10.222
					c2.29,5.888,3.252,18.275,2.323,19.514c-0.929,1.239-12.622-12.622-15.41-12.622c-2.788,0-4.878,0.232-11.693,2.71
					c-6.814,2.478-25.811-3.475-31.696-4.404c-5.885-0.929-8.881,3.475-10.429,3.475c-1.549,0-4.336-0.62-9.602-3.098
					c-5.266-2.478-8.363-4.956-8.363-4.956s-19.824-15.487-24.47-16.107c-4.646-0.619-5.884-18.947-9.601-10.274
					c-3.717,8.673-10.842,2.84-10.842,2.84V144.377z"/>
				<path style="fill:#6CABC9;" d="M350.149,125.793c0,0-14.988,0.514-27.064,5.433c-15.422,6.283-38.735,39.49-55.947,44.435
					c-13.576,3.901-31.594-6.04-52.501-5.575l-12.753,15.256c7.294,7.566,45.5,25.654,65.255,24.236
					c21.709-1.558,54.196-15.445,65.339-19.764c11.014-4.268,17.822-21.721,17.822-21.721v-28.378L350.149,125.793z"/>
				<path style="fill:#6CABC9;" d="M521.282,196.414c-1.549,0.31-3.717,0.31-12.39-1.858c-8.673-2.168-29.735-9.292-29.735-9.292
					s-21.992-20.133-35.621-34.382s-29.735-19.514-29.735-19.514l-7.124,13.009v39.338c0,0-25.971,16.694-22.254,8.022
					c3.717-8.673,31.045,1.98,35.691,2.6c4.646,0.62,34.865,14.853,39.838,17.875c12.235,7.434,33.917,6.505,51.727,4.027
					c3.929-0.547,5.238-1.716,7.047-2.246L521.282,196.414z"/>
				<path style="opacity:0.5;fill:#6CABC9;" d="M316.41,198.197c-1.298-6.164-1.622-14.599-1.622-14.599
					s-26.804,17.867-22.71,12.328c5.515-7.462-8.67,1.831-17.519,5.84c-9.651,4.372-18.934,2.98-12.925-0.55
					c5.138-3.019-30.492,0.039-30.492,0.039s18.412,9.253,35.995,8.324s43.745-11.15,43.745-11.15l3.58,14.044
					C314.463,212.472,317.708,204.361,316.41,198.197z"/>
				<path style="opacity:0.5;fill:#6CABC9;" d="M414.376,175.111c0,0,23.998,21.032,34.783,25.885
					c10.786,4.854,15.639,4.854,15.639,7.011s42.873,5.123,54.197,1.887l-0.269,4.098c0,0-11.864,6.418-43.142,3.452
					c0,0-8.359-1.079-26.155-10.516c0,0-26.694-12.403-31.278-12.673L414.376,175.111z"/>
			</g>
		</g>
		<path style="opacity:0.33;clip-path:url(#SVGID_00000022558103115199930260000018151207854149237930_);fill:#7297F4;" d="
			M196.033,229.068c-0.858,16.378-17.144,26.165-22.1,31.431c-4.956,5.266,5.696,0.303,5.696,0.303s-4.223,6.327-20.83,11.344
			c-16.137,4.876-4.181,1.316-5.421,6.892c-0.782,3.521-10.547,7.49-16.613,9.654c10.383-2.845,24.884-5.426,38.469-16.1
			c8.401-6.6,15.341-15.877,20.457-24.127l4.706-8.166c0.094-0.177,0.188-0.351,0.279-0.525L196.033,229.068z"/>
		<path style="opacity:0.47;clip-path:url(#SVGID_00000022558103115199930260000018151207854149237930_);fill:#ED993E;" d="
			M449.338,247.212l-17.036,15.874l4.884,8.982l8.767-10.596l-1.881,2.388c0,0,0.858,22.998,2.251,36.007l2.313-41.639l0.082-0.098
			L449.338,247.212z"/>
	</g>
</g>
</svg>
