<?xml version="1.0" encoding="utf-8"?>
<!-- Generator: Adobe Illustrator 27.5.0, SVG Export Plug-In . SVG Version: 6.00 Build 0)  -->
<svg version="1.1" xmlns="http://www.w3.org/2000/svg" xmlns:xlink="http://www.w3.org/1999/xlink" x="0px" y="0px"
	 viewBox="0 0 1122 900" style="enable-background:new 0 0 1122 900;" xml:space="preserve">
<g id="background">
	<rect x="0" y="0" style="fill:#FFFFFF;" width="1122" height="900"/>
</g>
<g id="object">
	<g style="opacity:0.19;">
		<g>
			<g>
				
					<ellipse transform="matrix(0.025 -0.9997 0.9997 0.025 315.0243 648.864)" style="fill:#F6D738;" cx="490.166" cy="162.928" rx="96.53" ry="96.53"/>
			</g>
			<g>
				
					<ellipse transform="matrix(0.025 -0.9997 0.9997 0.025 315.024 648.8639)" style="fill:#F3CC30;" cx="490.166" cy="162.928" rx="81.924" ry="81.924"/>
			</g>
			<g>
				<path style="fill:#EDBD31;" d="M570.37,145.795c-3.606,14.689-11.318,28.554-23.091,39.752
					c-32.784,31.183-84.639,29.885-115.821-2.899c-10.83-11.386-17.738-25.073-20.774-39.395
					c-6.435,26.215,0.208,55.059,20.192,76.07c31.183,32.784,83.038,34.082,115.821,2.899
					C568.096,201.869,576.076,172.71,570.37,145.795z"/>
			</g>
			<g>
				<path style="fill:#F7DB5E;" d="M438.164,119.132c28.94-27.526,74.714-26.38,102.24,2.559
					c16.089,16.916,22.378,39.582,19.051,60.995c7.102-23.989,1.546-51.007-16.935-70.437c-27.526-28.94-73.301-30.085-102.24-2.559
					c-12.024,11.437-19.245,26.024-21.61,41.245C422.146,139.194,428.654,128.178,438.164,119.132z"/>
			</g>
			<path style="fill:#D49A34;" d="M533.14,131.386l-7.562,7.193c2.398,3.5,3.756,6.937,4.073,10.309
				c0.317,3.373-0.262,7.426-1.736,12.16l-11.362-3.523c1.962-6.178,1.206-11.094-2.267-14.746
				c-2.153-2.264-4.609-3.505-7.365-3.725c-2.757-0.22-5.138,0.625-7.144,2.533c-1.827,1.737-2.77,3.785-2.828,6.144
				c-0.058,2.308,0.815,6.034,2.62,11.176c1.545,4.458,2.661,8.296,3.346,11.515c0.685,3.219,0.938,5.893,0.76,8.023
				c-0.374,5.892-2.785,10.954-7.235,15.186c-4.373,4.16-9.479,6.518-15.318,7.074c-5.79,0.558-11.331-0.786-16.622-4.032
				l-7.987,7.597l-6.422-6.752l7.755-7.377c-3.972-5.825-5.894-11.321-5.764-16.49c0.129-5.169,2.359-11.014,6.691-17.535l9.849,6.8
				c-2.809,4.877-4.255,8.946-4.336,12.208c0.068,3.266,1.485,6.352,4.25,9.259c2.691,2.829,5.855,4.327,9.492,4.494
				c3.586,0.165,6.808-1.11,9.663-3.826c2.546-2.422,3.845-5.152,3.896-8.189c-0.013-1.507-0.29-3.484-0.831-5.934
				c-0.542-2.449-1.409-5.409-2.603-8.879c-2.509-7.119-3.571-12.356-3.185-15.71c0.43-5.162,2.601-9.602,6.511-13.321
				c1.852-1.762,3.856-3.105,6.014-4.031c2.157-0.925,4.418-1.446,6.781-1.563c2.363-0.116,4.803,0.196,7.321,0.937
				c2.517,0.741,5.037,1.896,7.559,3.466l7.562-7.193L533.14,131.386z"/>
		</g>
	</g>
	<g style="opacity:0.52;">
		<g>
			<g>
				
					<ellipse transform="matrix(0.7071 -0.7071 0.7071 0.7071 70.2067 436.2158)" style="fill:#F6D738;" cx="561.662" cy="133.361" rx="96.53" ry="96.53"/>
			</g>
			<g>
				
					<ellipse transform="matrix(0.7071 -0.7071 0.7071 0.7071 70.2067 436.2158)" style="fill:#F3CC30;" cx="561.662" cy="133.361" rx="81.924" ry="81.924"/>
			</g>
			<g>
				<path style="fill:#EDBD31;" d="M639.964,108.967c-2.248,14.958-8.661,29.469-19.361,41.696
					c-29.796,34.049-81.552,37.497-115.601,7.702c-11.825-10.348-19.956-23.346-24.288-37.33
					c-4.012,26.694,5.24,54.81,27.062,73.905c34.049,29.796,85.806,26.348,115.601-7.702
					C642.825,165.014,648.106,135.248,639.964,108.967z"/>
			</g>
			<g>
				<path style="fill:#F7DB5E;" d="M505.874,94.503c26.302-30.057,71.989-33.1,102.046-6.799
					c17.568,15.374,25.903,37.371,24.547,58.998c4.879-24.538-3.124-50.935-23.303-68.593
					c-30.057-26.302-75.744-23.258-102.046,6.799c-10.928,12.488-16.785,27.675-17.749,43.048
					C491.758,115.945,497.231,104.38,505.874,94.503z"/>
			</g>
			<path style="fill:#D49A34;" d="M601.573,98.022l-6.873,7.854c2.708,3.266,4.374,6.564,4.999,9.894
				c0.624,3.33,0.418,7.419-0.617,12.268l-11.637-2.47c1.389-6.332,0.187-11.158-3.606-14.477c-2.351-2.057-4.91-3.069-7.674-3.036
				c-2.765,0.033-5.059,1.092-6.883,3.175c-1.66,1.897-2.412,4.022-2.255,6.377c0.153,2.304,1.363,5.934,3.631,10.89
				c1.946,4.298,3.408,8.018,4.385,11.161c0.976,3.143,1.473,5.782,1.49,7.92c0.166,5.901-1.772,11.163-5.816,15.784
				c-3.975,4.542-8.844,7.357-14.607,8.445c-5.715,1.085-11.355,0.253-16.922-2.495l-7.259,8.295l-7.013-6.137l7.049-8.055
				c-4.488-5.437-6.905-10.735-7.248-15.895c-0.344-5.159,1.342-11.184,5.06-18.073l10.429,5.871
				c-2.352,5.113-3.419,9.297-3.201,12.553c0.367,3.246,2.059,6.19,5.079,8.832c2.938,2.571,6.226,3.774,9.863,3.607
				c3.586-0.163,6.678-1.728,9.273-4.693c2.314-2.645,3.358-5.482,3.131-8.511c-0.151-1.499-0.608-3.443-1.37-5.833
				c-0.763-2.39-1.898-5.257-3.403-8.604c-3.149-6.86-4.685-11.978-4.608-15.354c-0.044-5.179,1.712-9.799,5.266-13.86
				c1.683-1.924,3.556-3.445,5.621-4.564c2.064-1.118,4.267-1.844,6.61-2.176c2.342-0.332,4.801-0.244,7.376,0.264
				c2.574,0.508,5.19,1.428,7.844,2.76l6.873-7.854L601.573,98.022z"/>
		</g>
	</g>
	<g style="opacity:0.75;">
		<g>
			<g>
				
					<ellipse transform="matrix(0.7071 -0.7071 0.7071 0.7071 95.7051 517.5579)" style="fill:#F6D738;" cx="672.6" cy="143.253" rx="96.53" ry="96.53"/>
			</g>
			<g>
				
					<ellipse transform="matrix(0.7071 -0.7071 0.7071 0.7071 95.7051 517.5579)" style="fill:#F3CC30;" cx="672.6" cy="143.253" rx="81.924" ry="81.924"/>
			</g>
			<g>
				<path style="fill:#EDBD31;" d="M752.804,126.119c-3.606,14.689-11.318,28.553-23.091,39.752
					c-32.784,31.183-84.639,29.885-115.821-2.899c-10.83-11.386-17.738-25.073-20.774-39.394
					c-6.435,26.215,0.208,55.059,20.192,76.07c31.183,32.784,83.038,34.082,115.821,2.899
					C750.529,182.193,758.51,153.035,752.804,126.119z"/>
			</g>
			<g>
				<path style="fill:#F7DB5E;" d="M620.598,99.457c28.94-27.526,74.714-26.38,102.24,2.559
					c16.089,16.916,22.378,39.582,19.051,60.995c7.102-23.989,1.546-51.007-16.935-70.437c-27.526-28.94-73.301-30.085-102.24-2.559
					c-12.024,11.437-19.245,26.024-21.61,41.245C604.58,119.519,611.088,108.503,620.598,99.457z"/>
			</g>
			<path style="fill:#D49A34;" d="M715.574,111.711l-7.562,7.193c2.398,3.5,3.756,6.937,4.074,10.309
				c0.317,3.373-0.262,7.426-1.736,12.16l-11.362-3.523c1.962-6.178,1.207-11.094-2.267-14.746
				c-2.153-2.264-4.609-3.505-7.365-3.725c-2.757-0.22-5.138,0.625-7.144,2.533c-1.827,1.738-2.77,3.785-2.828,6.144
				c-0.058,2.308,0.815,6.034,2.62,11.176c1.545,4.458,2.661,8.296,3.346,11.515c0.685,3.219,0.938,5.893,0.76,8.023
				c-0.374,5.892-2.785,10.954-7.235,15.186c-4.373,4.16-9.479,6.518-15.318,7.074c-5.79,0.558-11.331-0.786-16.622-4.032
				l-7.987,7.597l-6.422-6.752l7.755-7.377c-3.972-5.825-5.894-11.321-5.765-16.491c0.129-5.169,2.359-11.014,6.691-17.535
				l9.849,6.8c-2.809,4.877-4.255,8.945-4.336,12.208c0.068,3.266,1.485,6.352,4.25,9.259c2.691,2.829,5.855,4.327,9.492,4.494
				c3.586,0.165,6.808-1.11,9.663-3.826c2.546-2.422,3.845-5.152,3.896-8.189c-0.013-1.507-0.29-3.485-0.831-5.934
				c-0.542-2.449-1.409-5.409-2.603-8.879c-2.509-7.119-3.571-12.356-3.185-15.711c0.43-5.162,2.601-9.602,6.511-13.321
				c1.852-1.762,3.856-3.105,6.014-4.031c2.157-0.925,4.418-1.446,6.781-1.563c2.363-0.116,4.803,0.196,7.321,0.937
				c2.517,0.741,5.037,1.896,7.559,3.466l7.562-7.193L715.574,111.711z"/>
		</g>
	</g>
	<g>
		<path style="fill:#E5D1BD;" d="M467.94,278.214c-0.38-0.17-0.772-0.311-1.179-0.414c-3.794-0.954-6.381,1.98-9.855,2.092
			c-1.549,0.05-5.195-2.819-6.044-0.387c-0.306,0.9-1.595,3.842-2.704,6.873c-1.765,2.021-3.443,4.126-5.39,5.972
			c-4.929,4.67-20.828,8.712-18.15,17.653c0.518,1.729,1.056,3.499,2.143,4.94c0.888,1.178,2.096,2.069,3.322,2.886
			c0.956,0.636,2.321,1.875,3.419,1.657c1.152-0.229,3.047-2.506,3.98-3.272c2.664-2.189,5.328-4.379,7.993-6.569
			c2.613-2.148,5.891-4.433,9.089-3.338c0.7,0.24,1.348,0.635,2.073,0.777c0.819,0.16,1.662-0.016,2.472-0.215
			c2.968-0.729,5.952-1.715,8.679-3.12c4.874-2.515,5.871-11.067,6.775-15.814c0.225-1.182,0.419-2.413,0.11-3.576
			c-0.502-1.891-2.196-3.179-3.783-4.319C469.95,279.367,468.988,278.682,467.94,278.214z"/>
		<path style="fill:#3B474C;" d="M370.513,358.054c4.318,0.327,8.698,0.652,12.949-0.178c3.389-0.661,6.594-2.037,9.731-3.483
			c19.455-8.962,37.504-20.982,53.286-35.487c-4.238-9.159-10.304-17.464-17.736-24.279c-15.335,8.638-31.357,16.05-47.865,22.141
			c-3.376,1.246-6.818,2.447-10.403,2.746c-5.165,0.432-10.281-1.026-15.261-2.469c-19.311-5.597-38.621-11.194-57.932-16.792
			c-11.651-3.377-23.749-6.788-35.742-4.978c-33.254,5.02-31.804,47.629-1.245,54.753
			C294.605,358.029,335.286,355.383,370.513,358.054z"/>
	</g>
	<g>
		<g>
			<g>
				<g>
					<path style="fill:#E5D1BD;" d="M64.048,776.042c2.363,3.086,5.402,5.417,8.093,8.141c10.687-7.913,20.499-15.979,29.349-26.16
						c-7.604-1.296-8.785-8.022-17.962-1.382C80.559,758.792,69.143,773.03,64.048,776.042z"/>
					<path style="fill:#4D4D4D;" d="M78.543,780.43c1.851,1.582,1.925,3.354,1.813,5.518c-0.065,1.257-0.59,2.508-0.348,3.759
						c0.242,1.252,0.848,2.176,1.589,3.29c3.903,5.865,14.37,18.16-0.123,18.961c-13.161,0.727-23.055-18.003-28.427-29.104
						c-0.353-0.73-0.79-1.449-0.686-2.283c0.104-0.834,0.527-1.688,1.065-2.45c2.994-4.24,6.63-9.661,12.154-6.234
						c2.357,1.462,2.551,4.437,5.058,5.974C72.69,779.121,76.692,778.848,78.543,780.43z"/>
				</g>
				<path style="fill:#313C3F;" d="M129.971,558.41c-2.95,25.529,35.263,52.226,27.547,72.773
					c-16.141,42.98-49.069,79.135-76.215,112.466c-1.94,2.382-14.509,15.636-17.254,18.636c5.802,8.292,14.469,14.038,22.156,21.17
					c38.793-29.368,108.411-83.755,127.1-108.766c25.368-33.948,30.727-97.668,42.887-141.666c2.014-7.288,5.042-17.787,0.43-24.74
					c-3.537-5.333-8.784-7.847-15.49-9.803c-17.943-5.233-42.301-15.838-59.93-5.402
					C161.933,504.486,132.238,538.794,129.971,558.41z"/>
			</g>
			<g>
				<g>
					<path style="fill:#E5D1BD;" d="M318.653,789.925c3.92,0.81,7.867,0.415,11.792,0.844c3.149-13.703,5.634-27.137,5.805-41.396
						c-6.89,4.527-12.11,0.274-14.759,11.925C320.634,765.069,320.833,784.028,318.653,789.925z"/>
					<path style="fill:#4D4D4D;" d="M332.929,783.455c2.454,0.002,3.677,1.434,5.033,3.118c0.787,0.978,1.169,2.365,2.089,3.227
						c0.92,0.862,2.021,1.125,3.329,1.45c6.887,1.711,22.965,4.157,12.475,14.395c-9.526,9.297-29.3,1.685-40.744-3.123
						c-0.753-0.316-1.582-0.581-2.076-1.277c-0.494-0.695-0.71-1.648-0.819-2.571c-0.609-5.133-1.44-11.931,5.001-13.021
						c2.747-0.465,5.049,1.667,7.991,1.141C327.618,786.363,330.476,783.453,332.929,783.455z"/>
				</g>
				<path style="fill:#313C3F;" d="M216.204,581.706c18.85,18.521,72.798,32.117,81.575,53.436
					c3.521,8.552,12.264,74.087,14.029,118.616c0.126,3.182-3.043,21.547-3.077,25.753c10.053,2.836,22.495-0.342,33.331,0.407
					c7.916-51.31,17.251-150.941,17.251-150.941c-10.721-44.875-62.474-96.335-91.192-136.763
					c-4.757-6.696-10.319-15.867-18.856-16.994c-6.548-0.864-11.717,1.413-17.604,5.18c-15.752,10.08-63.372,26.171-66.863,46.254
					C160.982,548.604,201.721,567.475,216.204,581.706z"/>
			</g>
			<path style="fill:#3B474C;" d="M224.305,300.157c-16.41,14.447-41.12,27.661-50.977,47.764
				c-23.845,48.633-38.311,100.852-45.841,154.21c-2.202,15.606-4.404,31.212-6.607,46.817
				c-2.168,15.354-1.628,18.918,10.915,20.046c25.353,2.319,52.799-6.007,77.153-12.547c6.21-1.668,12.495-3.493,17.892-6.989
				c8.157-5.284,13.899-14.136,22.874-17.863c4.24-1.761,8.887-2.228,13.456-2.675c9.778-0.958,20.721-1.583,28.274,4.702
				c4.421,3.679,6.646,9.51,11.149,12.964c3.14-4.303-1.222-17.699-1.987-23.055c-1.174-8.22-2.194-16.47-2.372-24.781
				c-0.361-16.879,0.705-33.762,2.18-50.523c2.578-29.293,3.923-58.727,6.328-87.953c1.723-20.932,6.065-37.322-8.18-55.007
				c-7.755-9.627-21.972-26.345-34.829-26.12C250.089,279.386,233.991,291.63,224.305,300.157z"/>
			<g>
				<path style="fill:#E5D1BD;" d="M300.034,272.739c-4.752,4.501-10.731,7.433-16.136,11.121
					c-5.258,3.588-8.231,7.558-11.401,12.906c-2.29,3.862-5.057,6.484-10.289,5.182c-9.867-2.457-4.078-9.102-3.928-15.583
					c0.172-7.409-2.943-14.582-4.237-21.783c-3.739-20.806,12.467-52.355,36.973-50.547
					C317.811,216.011,314.454,259.08,300.034,272.739z"/>
			</g>
			<path style="fill:#534741;" d="M268.133,236.894c-2.685,1.736-4.164,5.495-2.675,8.329c0.797,1.517,2.272,2.567,3.186,4.017
				c2.68,4.251-0.438,9.903-4.365,13.033c-3.926,3.13-8.852,5.293-11.5,9.564c-13.358-10.848-23.579-26.567-24.512-43.773
				c-0.673-12.418,4.258-25.357,13.482-33.767c10.827-9.871,21.778-9.328,35.871-10.533c5.317-0.454,10.811-0.936,16.053,0.368
				c4.802,1.194,8.344,4.634,12.817,6.168c7.405,2.54,19.769-0.11,25.553-5.559c3.543-3.337,5.634-8.426,10.102-10.348
				c4.317-1.857,9.716,0.223,12.296,4.158c2.58,3.935,2.548,9.233,0.608,13.522c-1.263,2.793-3.247,5.217-4.446,8.038
				c-2.526,5.943-1.34,13.05-4.256,18.811c-3.085,6.097-9.943,9.17-16.43,11.28c-6.741,2.193-14.079,4.069-18.948,9.609
				c0.89-3.675-4.989-11.861-8.874-12.697c-5.027-1.082-12.988,4.641-18.138,5.873C279.001,234.174,272.523,234.057,268.133,236.894
				z"/>
		</g>
		<g>
			<g>
				<path style="fill:#334C60;" d="M483.19,638.854H280.697c-4.363,0-7.899-3.537-7.899-7.899V299.21
					c0-4.363,3.537-7.899,7.899-7.899H483.19c4.363,0,7.899,3.537,7.899,7.899v331.744
					C491.089,635.317,487.552,638.854,483.19,638.854z"/>
				<rect x="284.067" y="309.75" style="fill:#D7E6ED;" width="195.303" height="296.805"/>
				<rect x="370.25" y="620.497" style="fill:#FFFFFF;" width="23.386" height="5.397"/>
			</g>
			<polygon style="opacity:0.04;" points="280.259,355.201 280.259,610.806 475.561,610.806 			"/>
		</g>
		<g>
			<g>
				<g>
					
						<ellipse transform="matrix(0.7071 -0.7071 0.7071 0.7071 -159.3626 427.9044)" style="fill:#F6D738;" cx="436.845" cy="406.32" rx="95.342" ry="95.342"/>
				</g>
				<g>
					
						<ellipse transform="matrix(0.7071 -0.7071 0.7071 0.7071 -159.3626 427.9044)" style="fill:#F3CC30;" cx="436.845" cy="406.32" rx="80.915" ry="80.915"/>
				</g>
				<g>
					<path style="fill:#EDBD31;" d="M496.185,351.18c4.38,14.283,4.859,29.945,0.546,45.402
						c-12.013,43.043-56.645,68.199-99.688,56.186c-14.949-4.172-27.737-12.281-37.563-22.889
						c7.816,25.49,28.055,46.587,55.641,54.285c43.043,12.013,87.675-13.143,99.688-56.186
						C522.648,399.884,514.652,371.116,496.185,351.18z"/>
				</g>
				<g>
					<path style="fill:#F7DB5E;" d="M370.571,395.51c10.604-37.996,50.002-60.202,87.999-49.598
						c22.209,6.198,39.019,22.236,47.04,42.079c-6.124-23.939-24.516-44.038-50.026-51.158
						c-37.996-10.604-77.394,11.601-87.998,49.598c-4.406,15.787-3.143,31.814,2.558,45.919
						C367.145,420.634,367.086,407.996,370.571,395.51z"/>
				</g>
				<path style="fill:#D49A34;" d="M457.318,357.812l-2.771,9.929c3.805,1.754,6.697,3.981,8.674,6.68
					c1.977,2.7,3.538,6.43,4.685,11.191l-11.419,2.765c-1.465-6.233-4.594-10.019-9.389-11.357c-2.972-0.829-5.683-0.639-8.131,0.57
					c-2.449,1.209-4.041,3.131-4.776,5.765c-0.669,2.398-0.432,4.612,0.713,6.642c1.119,1.987,3.746,4.704,7.881,8.151
					c3.567,2.998,6.457,5.688,8.668,8.071c2.21,2.383,3.779,4.522,4.706,6.419c2.666,5.186,3.184,10.699,1.554,16.542
					c-1.602,5.742-4.739,10.327-9.408,13.755c-4.628,3.405-10.007,5.07-16.138,4.997l-2.926,10.486l-8.865-2.474l2.842-10.183
					c-6.318-2.929-10.731-6.616-13.238-11.066c-2.508-4.449-3.576-10.535-3.204-18.258l11.795,0.78
					c0.087,5.558,0.921,9.74,2.505,12.548c1.712,2.735,4.475,4.635,8.292,5.7c3.715,1.037,7.156,0.705,10.325-0.996
					c3.125-1.675,5.211-4.388,6.257-8.137c0.933-3.343,0.652-6.316-0.842-8.917c-0.774-1.271-2.011-2.808-3.71-4.611
					c-1.699-1.803-3.934-3.873-6.703-6.212c-5.732-4.767-9.284-8.67-10.656-11.71c-2.249-4.595-2.656-9.459-1.224-14.593
					c0.679-2.432,1.698-4.586,3.059-6.463c1.361-1.877,3.014-3.463,4.959-4.759c1.945-1.295,4.173-2.266,6.683-2.913
					c2.509-0.646,5.232-0.942,8.165-0.888l2.771-9.929L457.318,357.812z"/>
			</g>
		</g>
		<g>
			<path style="fill:#E5D1BD;" d="M301.129,519.626c0.141-0.393,0.253-0.795,0.324-1.21c0.667-3.863-2.444-6.231-2.813-9.695
				c-0.165-1.545,2.418-5.403-0.064-6.07c-0.918-0.239-3.94-1.309-7.039-2.192c-2.142-1.614-4.361-3.135-6.341-4.945
				c-5.012-4.58-10.215-20.173-18.91-16.832c-1.682,0.646-3.403,1.316-4.756,2.509c-1.105,0.975-1.903,2.249-2.625,3.535
				c-0.562,1.003-1.693,2.46-1.395,3.54c0.313,1.134,2.719,2.86,3.551,3.735c2.376,2.5,4.752,5.001,7.129,7.501
				c2.331,2.453,4.848,5.56,3.996,8.838c-0.186,0.717-0.532,1.395-0.619,2.13c-0.099,0.83,0.139,1.66,0.397,2.455
				c0.945,2.912,2.148,5.822,3.748,8.444c2.864,4.685,11.446,5.047,16.236,5.598c1.192,0.137,2.432,0.239,3.565-0.156
				c1.844-0.643,3-2.431,4.016-4.102C300.13,521.721,300.74,520.71,301.129,519.626z"/>
			<g>
				<path style="fill:#F2F2F2;" d="M267.123,503.439c0.378-0.004,0.718-0.219,1.033-0.429c5.665-3.787,10.73-8.469,14.95-13.819
					c-1.978-2.083-3.957-4.167-5.935-6.25c-0.147-0.155-0.303-0.316-0.506-0.385c-0.424-0.144-0.86,0.157-1.207,0.441
					c-3.794,3.096-7.588,6.192-11.382,9.288c-1.7,1.388-4.754,3.253-3.881,5.703C260.663,499.296,265.817,503.453,267.123,503.439z"
					/>
				<path style="fill:#3B474C;" d="M214.461,428.168c-0.005,4.341-0.002,8.743,1.139,12.931c0.91,3.339,2.517,6.44,4.187,9.468
					c10.361,18.782,22.072,34.418,37.674,49.116c8.797-4.917,15.814-13.531,22.042-21.466c-9.733-14.687-15.914-26.707-23.2-42.755
					c-1.49-3.282-2.94-6.634-3.505-10.195c-0.814-5.131,0.257-10.354,1.323-15.438c4.134-19.719,8.268-39.438,12.403-59.157
					c2.494-11.897,4.989-24.244,2.298-36.098c-7.464-32.869-49.746-28.254-54.565,2.822
					C208.847,352.288,214.502,392.756,214.461,428.168z"/>
				<path style="fill:#F2F2F2;" d="M273.964,476.375c-1.26-0.706-3.349-0.143-3.464,1.438c-0.084,1.161,1.065,2.212,2.226,2.13
					c1.86-0.131,2.962-2.52,1.301-3.53C274.006,476.399,273.985,476.386,273.964,476.375z"/>
				<path style="fill:#F2F2F2;" d="M269.617,470.5c-1.26-0.706-3.349-0.143-3.464,1.438c-0.084,1.161,1.065,2.212,2.226,2.13
					c1.86-0.131,2.962-2.52,1.301-3.53C269.659,470.524,269.638,470.512,269.617,470.5z"/>
			</g>
		</g>
	</g>
	<g>
		<g>
			<path style="fill:#C9A98D;" d="M807.063,439.089c0.292-0.628,0.598-1.209,0.878-1.708c1.985-3.544,4.463-6.811,7.341-9.678
				c0.512-0.51,1.057-1.021,1.732-1.28c0.559-0.215,1.169-0.243,1.768-0.269c6.162-0.264,11.801-1.413,17.831-2.665
				c4.513-0.938,11.547-2.306,14.276,2.666c0.818,1.491,1.65,3.023,1.842,4.677c0.157,1.352-0.125,2.713-0.473,4.035
				c-0.271,1.03-0.429,2.724-1.402,3.267c-1.021,0.57-4.028,0.228-5.26,0.298c-3.52,0.2-7.041,0.4-10.561,0.6
				c-3.453,0.196-7.5,0.719-9.129,3.468c-0.356,0.601-0.566,1.276-1.01,1.828c-0.501,0.623-1.255,1.035-1.999,1.41
				c-2.729,1.376-5.649,2.588-8.666,3.356c-2.753,0.701-4.33-0.756-6.628-1.963C804.731,445.626,805.758,441.893,807.063,439.089z"
				/>
			<path style="fill:#4D6B7C;" d="M926.134,425.716c-5.706,4.746-12.354,8.082-20.775,10.591
				c-20.807,6.197-42.695,9.449-64.618,9.601c-3.216-8.839-4.468-18.251-3.66-27.519c17.498-3.824,34.656-8.908,51.255-15.186
				c8.133-3.076,14.768-7.034,17.089-15.154c5.167-18.079,8.827-36.51,10.939-55.086c0.467-4.107,0.885-8.315,2.81-12.06
				c3.529-6.866,11.921-11.112,20.313-11.422s16.63,2.9,23.122,7.714c4.653,3.45,8.653,7.927,9.992,13.22
				c1.386,5.475-0.19,11.171-1.95,16.553c-7.851,24.009-19.566,46.983-34.664,67.98
				C932.937,419.191,929.721,422.732,926.134,425.716z"/>
		</g>
		<g>
			<g>
				<g>
					<circle style="fill:#F6D738;" cx="809.068" cy="317.25" r="90.805"/>
				</g>
				<g>
					
						<ellipse transform="matrix(0.7071 -0.7071 0.7071 0.7071 12.6411 665.0175)" style="fill:#F3CC30;" cx="809.068" cy="317.25" rx="77.065" ry="77.065"/>
				</g>
				<g>
					<path style="fill:#EDBD31;" d="M871.446,271.851c2.519,14.004,1.193,28.869-4.643,42.995
						c-16.25,39.338-61.313,58.054-100.651,41.804c-13.662-5.644-24.834-14.765-32.92-25.913
						c4.495,24.992,21.236,47.241,46.447,57.655c39.338,16.25,84.401-2.466,100.651-41.804
						C890.936,320.913,886.643,292.801,871.446,271.851z"/>
				</g>
				<g>
					<path style="fill:#F7DB5E;" d="M747.625,299.498c14.345-34.725,54.123-51.247,88.848-36.902
						c20.297,8.385,34.371,25.46,39.701,45.136c-3.071-23.333-18.179-44.429-41.493-54.06
						c-34.725-14.345-74.504,2.177-88.848,36.902c-5.96,14.428-6.587,29.727-2.799,43.713
						C741.531,322.866,742.911,310.909,747.625,299.498z"/>
				</g>
				<path style="fill:#D49A34;" d="M833.938,273.706l-3.749,9.074c3.399,2.091,5.881,4.525,7.444,7.302
					c1.563,2.778,2.615,6.482,3.159,11.115l-11.112,1.317c-0.677-6.06-3.206-9.996-7.588-11.806
					c-2.716-1.122-5.302-1.25-7.754-0.384c-2.454,0.865-4.177,2.502-5.171,4.909c-0.905,2.192-0.933,4.312-0.081,6.362
					c0.833,2.006,3.008,4.874,6.526,8.603c3.033,3.24,5.46,6.113,7.28,8.617c1.819,2.504,3.06,4.706,3.721,6.604
					c1.932,5.207,1.796,10.479-0.41,15.819c-2.168,5.247-5.654,9.227-10.46,11.938c-4.763,2.694-10.039,3.658-15.828,2.892
					l-3.959,9.583l-8.102-3.347l3.844-9.306c-5.641-3.487-9.396-7.476-11.261-11.968c-1.866-4.492-2.185-10.368-0.956-17.629
					l11.065,2.078c-0.549,5.266-0.235,9.315,0.943,12.15c1.308,2.781,3.706,4.891,7.194,6.332c3.395,1.402,6.687,1.48,9.876,0.232
					c3.145-1.23,5.426-3.558,6.841-6.984c1.262-3.055,1.334-5.898,0.217-8.528c-0.588-1.29-1.582-2.884-2.984-4.782
					c-1.402-1.898-3.28-4.11-5.632-6.635c-4.879-5.159-7.794-9.254-8.746-12.284c-1.604-4.601-1.437-9.247,0.501-13.939
					c0.918-2.223,2.126-4.143,3.627-5.764c1.5-1.62,3.244-2.932,5.23-3.937c1.986-1.003,4.203-1.669,6.651-1.995
					c2.446-0.326,5.055-0.297,7.822,0.088l3.748-9.074L833.938,273.706z"/>
			</g>
		</g>
		<g>
			<g>
				<g>
					<g>
						<path style="fill:#E5D1BD;" d="M961.461,828.322c-3.327-0.02-6.654-0.039-9.981-0.059
							c-2.225-12.196-3.519-24.742-3.843-37.266c4.725,2.289,11.026,0.425,12.318,8.975
							C960.373,802.739,960.804,828.318,961.461,828.322z"/>
						<path style="fill:#4D4D4D;" d="M951.34,822.462c-1.614,0.304-3.085,1.507-4.028,3.293c-0.548,1.037-0.931,2.27-1.622,3.121
							c-0.678,0.834-1.584,1.218-2.464,1.582c-4.209,1.738-7.369,2.316-11.311,4.965c-1.407,0.946-2.958,1.661-4.577,2.112
							c-0.489,0.136-1.01,0.263-1.375,0.629c-0.436,0.438-0.546,1.122-0.526,1.752c0.08,2.614,2.003,4.887,4.307,5.938
							c2.748,1.253,5.881,1.294,8.704,2.359c3.316,1.252,6.772,1.114,10.184,0.354c6.901-1.536,13.151-5.358,19.237-8.911
							c0.542-0.316,1.108-0.67,1.43-1.35c0.344-0.727,0.343-1.687,0.318-2.591c-0.141-5.027-0.265-12.69-5.326-12.49
							c-2.159,0.086-4.066,1.962-6.393,1.881C955.991,825.041,952.792,822.188,951.34,822.462z"/>
					</g>
					<path style="fill:#4D6B7C;" d="M900.688,654.12c-0.839,4.963-1.677,9.967-1.54,15.004c0.147,5.421,1.419,10.733,2.685,15.994
						c11.267,46.855,22.534,93.71,33.802,140.564c7.397-0.583,14.794-1.166,22.191-1.749c3.335-0.263,9.268-3.085,12.416-4.258
						c0,0,0.298-4.531-0.031-7.712c-5.847-56.5-14.947-99.243-12.288-149.235c0.668-12.568,7.781-20.944,13.819-31.855
						c20.514-37.068,24.552-68.227,33.846-92.644c0.588-1.546-61.386-7.887-64.451-8.201c-7.786-0.795-14.433-0.634-18.672,7.022
						c-4.686,8.464-5.04,20.604-6.7,29.97c-2.433,13.729-4.84,27.462-7.221,41.2C905.893,623.514,903.274,638.814,900.688,654.12z"
						/>
				</g>
				<g>
					<g>
						<path style="fill:#E5D1BD;" d="M1039.124,829.081c-3.56,0.326-7.12,0.651-10.68,0.977
							c-3.599-12.319-6.237-25.096-7.836-37.951c5.282,1.865,11.834-0.709,14.071,7.956
							C1035.403,802.867,1038.421,829.146,1039.124,829.081z"/>
						<path style="fill:#4D4D4D;" d="M1027.714,824.103c-1.696,0.481-3.149,1.871-3.979,3.807c-0.482,1.124-0.768,2.433-1.422,3.38
							c-0.641,0.929-1.572,1.418-2.477,1.884c-4.328,2.226-7.649,3.149-11.6,6.285c-1.411,1.12-2.997,2.017-4.683,2.649
							c-0.51,0.191-1.055,0.375-1.408,0.79c-0.423,0.496-0.471,1.211-0.388,1.858c0.347,2.682,2.631,4.821,5.2,5.663
							c3.064,1.004,6.419,0.72,9.544,1.523c3.672,0.944,7.353,0.442,10.927-0.694c7.227-2.298,13.528-6.88,19.682-11.17
							c0.548-0.382,1.118-0.805,1.394-1.538c0.295-0.784,0.198-1.772,0.081-2.699c-0.653-5.159-1.552-13.032-6.944-12.299
							c-2.3,0.312-4.152,2.441-6.649,2.6C1032.946,826.274,1029.24,823.67,1027.714,824.103z"/>
					</g>
					<path style="fill:#4D6B7C;" d="M991.604,720.358c7.915,32.699,18.81,64.993,20.941,98.569c0.1,1.575,0.235,3.288,1.301,4.451
						c1.063,1.16,2.757,1.448,4.322,1.605c9.972,1.004,20.194-0.588,29.388-4.578c0.122-17.55-4.97-34.659-7.786-51.981
						c-3.47-21.347-3.482-43.088-3.412-64.715c0.171-52.807,16.2-108.524,11.683-161.138c-0.856-9.965-17.364-17.272-21.271-26.478
						c-20.847,4.338-42.712,3.696-63.268-1.859c0.804,10.801,3.213,20.41,4.917,30.914c2.244,13.832,2.258,28.338,3.468,42.305
						c2.473,28.527,5.516,57.026,10.156,85.29C984.666,688.722,987.795,704.62,991.604,720.358z"/>
				</g>
				<path style="fill:#4D6B7C;" d="M1006.051,293.652c4.771,1.705,9.048,4.044,12.359,7.13
					c10.447,9.738,19.045,23.424,25.885,35.984c14.008,25.72,23.751,54.801,28.431,83.875c7.893,49.044,2.977,99.408-4.584,148.569
					c-61.329-16.733-123.127-31.588-185.288-44.538c6.678,1.391,26.837-36.406,29.819-42.114
					c7.748-14.829,16.708-33.616,17.631-50.787c1.633-30.38-6.164-60.501-3.407-90.88c1.048-11.551-0.028-21.834,7.769-30.976
					c8.397-9.844,20.361-16.383,32.843-18.776C978.276,289.075,993.793,289.272,1006.051,293.652z"/>
				<path style="fill:#FFFFFF;" d="M960.564,307.138c0.125,2.311,0.413,4.897,0.193,7.622c-0.549,6.765-1.754,13.519-3.37,20.107
					c-1.402,5.72-3.174,11.351-4.332,17.125c-1.263,6.296-1.789,12.715-2.235,19.122c-2.935,42.147-2.633,85.043-14.241,125.667
					c-2.712,9.492-6.076,18.864-7.349,28.653c-0.274,2.104-0.361,4.501,1.082,6.056c1.214,1.309,3.142,1.606,4.914,1.825
					c13.548,1.672,27.107,3.246,40.678,4.72c-1.226-16.813,1.705-33.609,3.553-50.365c2.811-25.494,3.12-51.264,0.921-76.818
					c-1.728-20.082-4.998-39.997-6.641-60.087c-0.942-11.52-2.929-23.304-1.001-34.831c0.922-5.515,5.974-11.069,6.624-15.813
					c0.888-6.478-6.994-3.556-12.223-2.467C960.714,298.989,960.313,302.515,960.564,307.138z"/>
			</g>
			<g>
				<g>
					<g>
						<path style="fill:#C9A98D;" d="M960.107,304.484c0.403,0.647,12.533-2.538,13.879-2.822c4.219-0.891,6.046-2.529,5.835-7.199
							c-0.23-5.073,0.383-9.896,2.091-14.678c1.382-3.87,4.088-6.9,5.626-10.669c1.356-3.323,2.335-6.796,2.99-10.323
							c1.068-5.754,1.319-11.668,1.037-17.507c-0.216-4.476-2.492-8.427-3.7-12.743c-0.914-3.268-1.876-6.63-3.976-9.295
							c-3.685-4.677-10.069-6.236-16.009-6.653c-16.909-1.187-47.031,6.577-45.256,28.312c0.39,4.771,1.55,9.441,2.706,14.087
							c2.439,9.801,3.522,28.578,15.537,31.895c3.388,0.935,7.197,0.172,10.339,1.747
							C956.745,291.413,956.834,299.221,960.107,304.484z"/>
					</g>
				</g>
				<path style="fill:#534741;" d="M1017.215,206.184c-4.812-1.339-8.762-4.713-12.629-7.873c-3.867-3.161-8.091-6.321-13.014-7.068
					c-4.471-0.678-8.899,0.734-13.39,0.863c-4.731,0.136-9.426-1.151-14.153-1.692c-13.636-1.561-27.688,3.536-36.481,13.411
					c-5.231,5.874-13.71,19.512-9.167,27.67c0.99,1.777,2.778,3.09,4.77,3.502c2.643,0.547,5.521-0.791,8.085-0.081
					c1.901,0.526,2.88,1.892,4.234,3.363c2.942,3.198,5.75,6.664,9.816,8.482c3.868,1.729,8.279,1.587,12.512,1.414
					c0.938-0.038,1.927-0.092,2.716-0.603c1.144-0.74,1.531-2.194,2.135-3.415c1.163-2.354,3.674-4.18,6.285-3.902
					c2.611,0.279,4.808,3.173,3.856,5.621c-0.968,2.488-4.094,3.135-6.699,3.718c-0.794,0.178-1.748,0.572-1.79,1.384
					c-0.028,0.547,0.396,1,0.789,1.382c4.094,3.965,8.187,7.931,12.281,11.896c2.495,2.416,8.052,10.698,11.647,6.742
					c6.065-6.675,6.313-15.646,11.904-22.006c2.558-2.911,4.873-6.027,6.914-9.311c3.919-6.301,5.865-13.607,10.864-19.203
					c1.891-2.117,4.281-3.762,6.205-5.85c3.209-3.48,5.008-8.174,4.96-12.94C1027.979,206.08,1022.026,207.523,1017.215,206.184z"/>
			</g>
			<path style="fill:#51889B;" d="M973.268,302.81c1.203,0.358,2.466,0.902,3.078,1.998c0.941,1.688-0.132,3.853-1.625,5.079
				c-1.493,1.226-3.373,1.92-4.832,3.188c-3.37,2.929-3.636,7.977-3.663,12.442c-0.293,49.079-2.216,98.149-5.765,147.101
				c-3.579,1.479-7.158,2.959-10.738,4.438c-2.85-8.4-4.81-17.187-4.745-26.057c0.048-6.608,1.215-13.151,2.322-19.666
				c4.229-24.909,7.62-49.951,10.721-75.022c1.535-12.416,3.16-24.839,4.458-37.282c0.427-4.094-0.856-8.966-0.252-12.755
				C963.126,300.645,967.752,301.17,973.268,302.81z"/>
		</g>
		<g>
			<path style="fill:#6F8D9E;" d="M899.37,322.47l-225.023,19.872c-5.381,0.475-9.385,4.927-8.942,9.943l18.249,206.645
				c0.443,5.016,5.164,8.697,10.546,8.222l263.837-23.3c5.381-0.475,9.384-4.927,8.941-9.943l-15.054-170.465
				C949.717,338.446,926.188,320.101,899.37,322.47z"/>
			<path style="fill:#8EA8BA;" d="M890.249,322.175l-228.047,20.139c-4.546,0.401-7.928,4.162-7.554,8.4l18.498,209.463
				c0.374,4.238,4.363,7.348,8.909,6.946l266.86-23.567c4.546-0.401,7.928-4.162,7.554-8.4l-15.303-173.283
				C939.028,337.654,916.231,319.881,890.249,322.175z"/>
			<path style="fill:#2E4661;" d="M971.835,401.856l-79.634,7.033c-16.79,1.483-29.28,15.372-27.898,31.022l0.051,0.573
				c1.382,15.65,16.113,27.135,32.903,25.652l79.634-7.033L971.835,401.856z"/>
			<path style="opacity:0.25;fill:#272525;" d="M974.338,430.193l-2.528-28.623l-79.634,7.033
				c-16.789,1.483-29.28,15.371-27.898,31.022l0.051,0.573L974.338,430.193z"/>
		</g>
		<g>
			<path style="fill:#C9A98D;" d="M909.04,508.294c-0.339-0.624-0.669-1.252-0.991-1.885c-0.193-0.38-0.386-0.774-0.416-1.199
				c-0.03-0.416,0.099-0.825,0.233-1.22c1.508-4.464,3.893-8.162,6.485-12.039c0.966-1.444,0.981-1.626,2.786-1.796
				c2.004-0.189,4.069-0.166,6.083-0.177c2.583-0.92,5.206-1.737,7.703-2.875c6.32-2.88,16.606-15.674,23.689-10.461
				c1.37,1.008,2.769,2.048,3.639,3.468c0.711,1.161,1.028,2.513,1.269,3.859c0.187,1.049,0.757,2.652,0.103,3.554
				c-0.686,0.947-3.558,1.902-4.646,2.484c-3.109,1.663-6.218,3.326-9.328,4.989c-3.05,1.631-6.501,3.808-6.822,6.988
				c-0.07,0.695,0.024,1.396-0.146,2.083c-0.192,0.776-0.703,1.467-1.22,2.121c-1.896,2.396-4.035,4.726-6.449,6.691
				c-2.203,1.794-4.246,1.137-6.839,1.009c-2.707-0.133-5.165,1.243-7.837,1.347c-2.687,0.105-4.155-1.607-5.5-3.819
				C910.213,510.39,909.613,509.349,909.04,508.294z"/>
			<path style="fill:#4D6B7C;" d="M1022.685,444.576c-3.179,6.707-7.805,12.531-14.389,18.35
				c-16.267,14.378-34.753,26.54-54.576,35.904c-6.637-6.664-11.734-14.676-14.902-23.422
				c14.264-10.833,27.688-22.665,40.104-35.347c6.083-6.213,10.437-12.596,9.125-20.938c-2.921-18.574-7.358-36.834-13.26-54.574
				c-1.305-3.922-2.696-7.916-2.526-12.122c0.312-7.714,6.137-15.097,13.62-18.91c7.482-3.813,16.306-4.368,24.222-2.733
				c5.673,1.172,11.185,3.549,14.628,7.787c3.561,4.383,4.529,10.213,5.197,15.836c2.982,25.083,2.024,50.853-2.835,76.255
				C1026.11,435.794,1024.683,440.359,1022.685,444.576z"/>
		</g>
	</g>
</g>
</svg>
