<?xml version="1.0" encoding="utf-8"?>
<!-- Generator: Adobe Illustrator 27.5.0, SVG Export Plug-In . SVG Version: 6.00 Build 0)  -->
<svg version="1.1" xmlns="http://www.w3.org/2000/svg" xmlns:xlink="http://www.w3.org/1999/xlink" x="0px" y="0px"
	 viewBox="0 0 750 500" style="enable-background:new 0 0 750 500;" xml:space="preserve">
<g id="BACKGROUND">
	<rect style="fill:#FFFFFF;" width="750" height="500"/>
</g>
<g id="OBJECTS">
	<g>
		<g>
			<path style="fill:#959DFC;" d="M692.488,440.956H55.669c0,0-61.301-41.249-27.986-123.904
				c33.316-82.655,74.94-83.373,118.761-180.297c43.821-96.924,142.891-110.389,203.468-63.77
				c60.577,46.619,91.887,66.114,178.204,82.453C614.434,171.777,758.937,251.721,692.488,440.956z"/>
			<path style="fill:#959DFC;" d="M527.423,139.648c0,0-15.992,1.689-34.982-4.42c-18.99-6.109-14.659-12.339-6.996-12.223
				c7.663,0.117,12.66,4.448,28.319,4.448C529.422,127.453,538.417,136.184,527.423,139.648z"/>
			<path style="fill:#959DFC;" d="M82.988,221.737c0,0-18.657,21.322-28.652,24.82c-9.995,3.498-10.994-5.331-1.666-12.41
				c9.329-7.08,13.993-13.41,19.99-22.738C78.657,202.081,92.65,206.411,82.988,221.737z"/>
			<path style="fill:#959DFC;" d="M723.321,346.339c0,0,1-14.275-3.332-30.958c-4.331-16.684,3.998-17.017,8.329-11.686
				c4.331,5.33,7.329,29.984,2.665,42.644C726.319,358.999,723.305,354.297,723.321,346.339z"/>
		</g>
		<g>
			<g>
				<path style="fill:#EBB04B;" d="M648.952,139.096c-0.271,10.348-0.542,20.696-0.813,31.044c-0.038,1.464-0.077,2.927-0.115,4.39
					c-0.027,1.031,1.575,1.031,1.602,0c0.271-10.348,0.542-20.696,0.813-31.044c0.038-1.464,0.077-2.927,0.115-4.391
					C650.581,138.065,648.979,138.065,648.952,139.096L648.952,139.096z"/>
			</g>
			<path style="fill:#070C21;" d="M600.18,105.245l-52.98,18.091c-1.307,0.446-1.478,2.224-0.281,2.912l48.152,27.659
				c0.364,0.209,0.794,0.267,1.201,0.162l54.479-14.051c1.359-0.35,1.646-2.153,0.463-2.908l-49.65-31.699
				C601.151,105.149,600.642,105.087,600.18,105.245z"/>
			<path style="fill:#E37565;" d="M568.55,161.192c0,0,0.696,18.616,1.044,27.663c0.348,9.047,9.395,18.094,21.4,20.878
				c12.005,2.784,24.706-9.221,25.923-13.397s5.045-22.966,5.741-29.577c0.696-6.611-4.002-20.356-18.616-25.053
				C589.428,137.008,573.422,143.968,568.55,161.192z"/>
			<path style="fill:#E37565;" d="M562.809,171.283c-5.22,2.958-2.436,21.226,6.785,17.572c-0.178-4.619-0.446-11.729-0.666-17.585
				C567.535,170.348,565.467,169.776,562.809,171.283z"/>
			<path style="fill:#E37565;" d="M625.147,176.906c-1.512-0.857-2.828-1.03-3.944-0.861c-1.166,6.43-2.72,13.931-3.705,18.04
				c0.271,0.139,0.556,0.271,0.863,0.393C627.582,198.132,630.366,179.863,625.147,176.906z"/>
			<path style="fill:#DBECF5;" d="M594.474,177.198c-3.633-0.538-18.501,4.704-25.053,7.107c0.063,1.664,0.122,3.213,0.174,4.549
				c0.348,9.047,9.395,18.094,21.4,20.878c12.005,2.784,24.706-9.221,25.923-13.397c0.286-0.982,0.718-2.777,1.218-5.026
				C618.127,191.304,599.17,177.894,594.474,177.198z"/>
			<ellipse style="fill:#2D2D2D;" cx="579.743" cy="170.297" rx="2.668" ry="4.234"/>
			<path style="fill:#2D2D2D;" d="M611.711,173.225c-0.262,2.323-1.662,4.073-3.126,3.908c-1.464-0.165-2.438-2.183-2.176-4.506
				c0.262-2.323,1.662-4.073,3.126-3.908C610.999,168.885,611.974,170.902,611.711,173.225z"/>
			<path d="M594.474,177.198c-0.092-0.78-0.015-1.473,0.068-2.167c0.099-0.698,0.211-1.346,0.396-2.105
				c0.446,0.666,0.485,1.48,0.398,2.211C595.221,175.874,594.987,176.596,594.474,177.198z"/>
			<g>
				<path style="fill:#2D2D2D;" d="M564.187,176.553c0.238-0.29,0.547-0.592,0.899-0.738c0.083-0.034,0.175-0.058,0.262-0.066
					c0.168-0.016,0.127,0.114,0.034-0.029c-0.038-0.059-0.065,0.038-0.103-0.114c0.012,0.05,0.066,0.105,0.088,0.154
					c0.076,0.165-0.049-0.162,0.012,0.033c0.02,0.063,0.042,0.125,0.062,0.188c0.056,0.182,0.099,0.367,0.139,0.553
					c0.08,0.37,0.163,0.888,0.201,1.171c0.279,2.056,0.381,4.142,0.465,6.214c0.021,0.518,0.04,1.036,0.053,1.555
					c0.024,1.029,1.627,1.033,1.602,0c-0.038-1.602-0.117-3.204-0.231-4.802c-0.087-1.215-0.197-2.43-0.379-3.635
					c-0.112-0.743-0.216-1.628-0.649-2.266c-0.907-1.337-2.818-0.288-3.588,0.65c-0.276,0.337-0.324,0.802,0,1.133
					C563.334,176.839,563.914,176.886,564.187,176.553L564.187,176.553z"/>
			</g>
			<g>
				<path style="fill:#2D2D2D;" d="M626.331,182.785c-0.289-0.999-0.842-2.387-1.925-2.735c-1.146-0.369-1.665,0.669-2.012,1.541
					c-0.89,2.236-1.345,4.681-1.836,7.028c-0.143,0.683-0.282,1.367-0.412,2.053c-0.19,1.008,1.354,1.439,1.545,0.426
					c0.281-1.493,0.598-2.981,0.941-4.461c0.261-1.123,0.537-2.245,0.872-3.348c0.137-0.45,0.282-0.899,0.46-1.335
					c-0.06,0.146,0.096-0.208,0.14-0.29c0.034-0.062,0.073-0.121,0.107-0.183c0.099-0.184-0.051,0.042,0.001-0.004
					c0.081-0.072-0.117,0.086-0.201,0.096c0.061-0.007-0.03,0.003-0.038,0.007c-0.121,0.069-0.101-0.122-0.044,0.002
					c0.049,0.108,0.292,0.326,0.413,0.545c0.201,0.363,0.322,0.662,0.444,1.084C625.073,184.199,626.619,183.779,626.331,182.785
					L626.331,182.785z"/>
			</g>
			<g>
				<path style="fill:#2D2D2D;" d="M574.867,161.712c-0.262,0.343,0.014-0.009,0.082-0.087c0.16-0.184,0.329-0.361,0.503-0.533
					c0.581-0.574,1.078-0.971,1.77-1.391c1.9-1.154,4.12-1.406,6.177-0.486c0.395,0.177,0.861,0.114,1.096-0.287
					c0.2-0.342,0.109-0.918-0.287-1.096c-2.522-1.129-5.23-1.001-7.624,0.385c-1.178,0.682-2.269,1.602-3.099,2.686
					c-0.263,0.344-0.053,0.897,0.287,1.096C574.184,162.241,574.604,162.057,574.867,161.712L574.867,161.712z"/>
			</g>
			<g>
				<path style="fill:#2D2D2D;" d="M606.634,161.384c0.118-0.018-0.217,0.012-0.154,0.02c0.047,0.006,0.109-0.014,0.156-0.018
					c0.174-0.016,0.348-0.031,0.523-0.039c0.588-0.028,1.178-0.01,1.763,0.054c0.035,0.004,0.316,0.041,0.139,0.016
					c0.085,0.012,0.169,0.025,0.253,0.04c0.2,0.033,0.398,0.073,0.596,0.119c0.405,0.094,0.803,0.217,1.191,0.365
					c0.263,0.1,0.691,0.314,1.03,0.524c0.391,0.242,0.644,0.437,0.977,0.761c0.855,0.832,1.391,1.894,1.704,3.052
					c0.269,0.994,1.815,0.572,1.545-0.426c-0.608-2.25-2.035-4.184-4.176-5.178c-1.499-0.696-3.167-0.983-4.815-0.936
					c-0.388,0.011-0.775,0.043-1.158,0.102c-0.428,0.066-0.665,0.603-0.56,0.985C605.774,161.282,606.204,161.451,606.634,161.384
					L606.634,161.384z"/>
			</g>
			<g>
				<path style="fill:#2D231A;" d="M568.928,171.27L568.928,171.27c0,0.008,0,0.015,0.001,0.023
					C568.929,171.285,568.929,171.277,568.928,171.27z"/>
				<path style="fill:#2D231A;" d="M622.659,166.759c-0.231,2.192-0.807,5.726-1.517,9.619c0.02-0.111,0.041-0.223,0.061-0.333
					c1.116-0.169,2.431,0.004,3.944,0.861c0,0,3.428-9.914,1.456-20.469c-1.972-10.555-14.091-21.19-26.561-22.386
					c-12.701-1.218-23.778,1.218-29.809,8.699c0,0-9.105,9.189-4.871,27.647l0.007,0.006c1.456-0.173,2.653,0.266,3.56,0.867
					c-0.211-5.615-0.378-10.078-0.378-10.078c4.871-17.224,20.878-24.184,35.492-19.486
					C618.657,146.403,623.355,160.148,622.659,166.759z"/>
			</g>
			<path style="fill:#142142;" d="M570.232,142.75c0,0,17.174-1.74,25.406,7.133c0,0,10.799-6.474,27.087-2.193l2.834-18.163
				c0,0-24.242-16.528-55.327-3.48V142.75z"/>
			<path style="fill:#E37565;" d="M590.994,209.733c-4.187-0.971-8-2.716-11.224-4.945l-0.027,0.001l-1.624,16.252
				c0,0,2.61,13.745,11.831,16.876c0,0,11.831-6.785,15.484-15.311l0.826-15.896C601.736,209.305,596.298,210.963,590.994,209.733z"
				/>
			<path style="fill:#2D2D2D;" d="M605.435,222.608l0.826-15.896c-4.525,2.593-9.963,4.251-15.267,3.021
				c-4.187-0.971-8-2.716-11.224-4.945l-0.027,0.001l-0.426,4.264C584.875,210.483,599.317,214.821,605.435,222.608z"/>
			<path style="fill:#142142;" d="M677.753,283.938c-3.712-22.996-23.546-36.103-72.319-61.33
				c-3.654,8.525-15.484,15.311-15.484,15.311c-9.221-3.132-11.831-16.876-11.831-16.876s-57.414,22.966-62.982,30.621
				c-5.567,7.655-49.411,189.293-49.411,189.293h228.265C693.992,440.956,681.465,306.934,677.753,283.938z"/>
			<path style="fill:#EBB04B;" d="M578.989,299.047c32.221-26.447,46.411-54.241,50.546-63.584c-4.439-2.477-9.237-5.064-14.4-7.789
				c-12.606,25.498-31.332,41.156-31.332,41.156c-9.637-14.959-13.742-32.557-15.472-43.775c-4.776,1.989-10.847,4.56-17.181,7.35
				C558.936,265.806,578.989,299.047,578.989,299.047z"/>
			<path style="fill:#EBB04B;" d="M644.822,193.654c0,0-1.062-18.592,3.825-19.017s5.206,19.017,5.206,19.017h-3.081l-0.744-6.008
				l-0.739,6.008H644.822z"/>
			<path style="fill:#FCC87C;" d="M649.433,174.756c-0.248-0.096-0.509-0.144-0.786-0.12c-4.887,0.425-3.825,19.017-3.825,19.017
				h2.416C646.245,178.498,648.712,175.344,649.433,174.756z"/>
			<g>
				<path style="fill:#070C21;" d="M640.046,342.506c-2.161,31.249-8.882,76.349-12.357,98.45h16.877
					C644.507,405.037,640.046,342.506,640.046,342.506z"/>
				<path style="fill:#070C21;" d="M482.198,440.956h22.679c5.067-32.883,9.465-117.758,9.465-117.758
					C503.241,382.125,489.862,421.377,482.198,440.956z"/>
				<path style="fill:#070C21;" d="M569.832,369.812c-4.063,32.078-13.588,56.679-20.496,71.144h15.74L569.832,369.812z"/>
			</g>
			<path style="fill:#2A3E68;" d="M578.989,299.047c-0.965,5.868-1.721,11.766-2.432,17.667c-0.74,5.898-1.404,11.806-2.045,17.716
				c-1.276,11.821-2.507,23.647-3.618,35.485l-1.711,17.754l-1.638,17.762l-3.307,35.525l1.154-17.804l1.334-17.791
				c0.93-11.858,2.007-23.704,3.105-35.548c1.2-11.834,2.416-23.669,3.867-35.477C575.192,322.536,576.686,310.721,578.989,299.047z
				"/>
			<path style="fill:#2A3E68;" d="M517.922,283.938c-0.838,13.115-1.792,26.221-2.765,39.326l-3.048,39.305l-1.633,19.643
				l-0.817,9.822l-0.411,4.911l-0.483,4.905c-1.358,13.068-2.592,26.177-4.993,39.105c1.05-6.485,1.707-13.025,2.363-19.56
				c0.665-6.534,1.259-13.076,1.813-19.621l3.099-39.297l3.296-39.281C515.484,310.108,516.644,297.019,517.922,283.938z"/>
			<path style="fill:#2A3E68;" d="M636.462,294.811c1.252,12.139,2.387,24.286,3.505,36.434c1.081,12.143,2.298,24.298,2.872,36.503
				c0.541,12.198,0.8,24.404,0.793,36.608c-0.01,12.204-0.183,24.408-0.674,36.6c0.017-6.101,0.046-12.2-0.002-18.3
				c-0.018-6.099-0.045-12.198-0.146-18.295c-0.164-12.194-0.414-24.389-1.037-36.563c-0.483-12.178-1.714-24.311-2.621-36.485
				C638.204,319.149,637.274,306.983,636.462,294.811z"/>
			<path style="fill:#BED9E5;" d="M608.73,184.946c-0.983,5.847-4.891,18.994-20.208,24.105c0.81,0.254,1.632,0.487,2.473,0.682
				c12.005,2.784,24.706-9.221,25.923-13.397c0.286-0.982,0.718-2.777,1.218-5.026C618.131,191.308,613.779,188.229,608.73,184.946z
				"/>
			<path style="fill:#101C35;" d="M610.833,123.237c1.856,5.318,3.743,14.839-2.13,23.105c3.966-0.297,8.698-0.051,14.023,1.348
				l2.834-18.163C625.559,129.527,620.01,125.754,610.833,123.237z"/>
			<path style="fill:#24365B;" d="M581.028,122.574c-3.483,0.793-7.089,1.918-10.796,3.474v16.702c0,0,2.776-0.28,6.629-0.04
				C575.815,131.422,578.531,125.538,581.028,122.574z"/>
		</g>
		<g>
			<polygon style="fill:#070C21;" points="142.305,137.415 107.572,189.327 161.219,177.077 206.383,144.522 			"/>
			<path style="fill:#2D231A;" d="M156.577,158.622c0,0-12.036,0.573-18.226,10.431c-6.19,9.858-4.814,24.646-6.362,35.822
				c-1.548,11.176-8.941,20.977-8.769,37.14c0.172,16.163,10.145,28.887,29.746,31.466c19.602,2.579,37.312-3.611,46.941-16.507
				c9.629-12.896,3.439-41.611,1.719-51.927c-1.719-10.317-10.489-38.935-22.009-44.056
				C168.097,155.871,156.577,158.622,156.577,158.622z"/>
			<path style="fill:#E37565;" d="M138.35,201.49c0,0,5.33,12.154,8.769,17.657c3.439,5.502,12.208,11.726,26.48,10.076
				c14.271-1.65,19.258-14.03,19.602-19.533c0.344-5.502-0.172-16.652-1.891-20.362c-1.719-3.71-10.732-18.841-25.484-18.841
				c-14.752,0-16.471,12.406-18.191,18.841C145.916,195.762,138.35,201.49,138.35,201.49z"/>
			<path style="fill:#DBECF5;" d="M167.065,204.359c-4.122,1.511-15.371,11.249-19.729,15.105
				c3.573,5.421,12.265,11.377,26.263,9.758c14.271-1.65,19.258-14.03,19.602-19.533c0.08-1.28,0.111-2.872,0.094-4.599
				C185.883,204.306,170.905,202.951,167.065,204.359z"/>
			<path style="fill:#E37565;" d="M139.793,204.699L139.793,204.699c0,0-3.105-1.257-4.251,1.724
				c-1.146,2.98,2.452,14.663,10.11,10.197c0,0,0,0,0,0C143.587,212.86,141.255,207.898,139.793,204.699z"/>
			<path style="fill:#E37565;" d="M197.656,189.997c-4.257-1.295-5.467,2.299-5.467,2.299s-0.001,0.002-0.001,0.002
				c0.717,3.498,1.064,8.561,1.107,12.792C202.215,205.019,201.913,191.291,197.656,189.997z"/>
			<path style="fill:#2D2D2D;" d="M156.444,201.712c1.26,2.703,1.06,5.463-0.447,6.165c-1.506,0.702-3.749-0.92-5.008-3.623
				c-1.26-2.703-1.06-5.463,0.447-6.165S155.184,199.01,156.444,201.712z"/>
			<path style="fill:#2D2D2D;" d="M182.109,194.106c0.661,2.908-0.116,5.564-1.736,5.932c-1.62,0.369-3.47-1.69-4.132-4.598
				c-0.661-2.908,0.116-5.564,1.736-5.932C179.597,189.139,181.447,191.198,182.109,194.106z"/>
			<path style="fill:#2D2D2D;" d="M167.065,204.359c-0.36-0.733-0.579-1.424-0.793-2.134c-0.195-0.714-0.39-1.415-0.447-2.236
				c0.619,0.545,0.98,1.268,1.207,2.018C167.234,202.761,167.326,203.571,167.065,204.359z"/>
			<g>
				<path style="fill:#2D2D2D;" d="M146.416,198.585c0.052-0.198,0.117-0.394,0.183-0.588c0.074-0.217,0.153-0.431,0.237-0.644
					c0.025-0.063,0.05-0.125,0.075-0.187c0.013-0.032,0.027-0.064,0.04-0.097c0,0-0.063,0.148-0.027,0.065
					c0.064-0.148,0.129-0.296,0.198-0.442c0.294-0.629,0.633-1.24,1.027-1.812c0.053-0.076,0.106-0.152,0.161-0.227
					c0.023-0.031,0.149-0.197,0.107-0.144c-0.058,0.074,0.034-0.042,0.047-0.058c0.03-0.036,0.06-0.073,0.09-0.109
					c0.068-0.081,0.138-0.162,0.209-0.241c0.254-0.282,0.528-0.545,0.823-0.784c0.006-0.005,0.1-0.077,0.032-0.026
					c-0.076,0.058,0.077-0.055,0.091-0.066c0.097-0.069,0.196-0.135,0.297-0.198c0.173-0.107,0.352-0.202,0.535-0.291
					c0.019-0.009,0.156-0.071,0.07-0.034c-0.089,0.038,0.09-0.035,0.107-0.041c0.103-0.038,0.207-0.073,0.312-0.104
					c0.107-0.032,0.214-0.06,0.323-0.084c0.049-0.011,0.098-0.021,0.147-0.03c0.032-0.006,0.249-0.038,0.09-0.018
					c0.424-0.054,0.792-0.325,0.792-0.792c0-0.385-0.365-0.846-0.792-0.792c-3.37,0.432-5.368,3.538-6.434,6.493
					c-0.098,0.272-0.193,0.548-0.267,0.828C144.628,199.15,146.155,199.571,146.416,198.585L146.416,198.585z"/>
			</g>
			<g>
				<path style="fill:#2D2D2D;" d="M174.171,186.814c0.068-0.041,0.139-0.077,0.21-0.113c0.083-0.042,0.168-0.081,0.253-0.121
					c0.028-0.013,0.208-0.09,0.03-0.015c0.063-0.026,0.126-0.052,0.189-0.076c0.671-0.254,1.372-0.448,2.086-0.527
					c2.462-0.273,4.759,0.657,6.59,2.278c0.76,0.673,1.884-0.443,1.119-1.12c-2.098-1.858-4.755-3.018-7.595-2.754
					c-1.251,0.116-2.589,0.43-3.681,1.079C172.496,185.967,173.292,187.336,174.171,186.814L174.171,186.814z"/>
			</g>
			<g>
				<path style="fill:#2D2D2D;" d="M138.512,209.823c-0.004-0.019-0.008-0.039-0.012-0.058c-0.04-0.202,0.005,0.122-0.001,0.011
					c-0.012-0.202-0.022-0.396-0.007-0.6c-0.014,0.189,0.024-0.072,0.037-0.137c0.008-0.042,0.066-0.179-0.002-0.028
					c0.018-0.04,0.044-0.078,0.061-0.118c0.067-0.159-0.092,0.062,0.037-0.058c0.034-0.031,0.065-0.068,0.102-0.096
					c-0.138,0.104,0.295-0.066-0.133,0.065c0.076-0.023,0.112,0.012-0.141,0.015c0.069-0.001-0.258-0.065-0.095-0.009
					c-0.268-0.092-0.137-0.066-0.062-0.016c0.138,0.091-0.152-0.148-0.023-0.02c0.04,0.039,0.083,0.075,0.122,0.115
					c0.093,0.095,0.176,0.199,0.261,0.301c-0.167-0.201,0.009,0.015,0.042,0.06c0.058,0.081,0.115,0.163,0.171,0.246
					c0.881,1.311,1.57,2.761,2.238,4.188c0.176,0.375,0.349,0.752,0.515,1.132c0.172,0.392,0.745,0.482,1.083,0.284
					c0.404-0.236,0.456-0.69,0.284-1.083c-0.509-1.162-1.06-2.309-1.652-3.43c-0.4-0.758-0.816-1.522-1.327-2.212
					c-0.425-0.573-1.006-1.302-1.82-1.103c-0.674,0.165-1.127,0.933-1.236,1.568c-0.08,0.464-0.074,0.943,0.032,1.404
					c0.096,0.417,0.574,0.663,0.974,0.553C138.387,210.679,138.608,210.241,138.512,209.823L138.512,209.823z"/>
			</g>
			<g>
				<path style="fill:#2D2D2D;" d="M198.355,194.374c-0.4-0.809-1.203-1.575-2.153-1.569c-0.992,0.006-1.467,0.75-1.661,1.618
					c-0.399,1.79-0.304,3.727-0.235,5.547c0.02,0.518,0.044,1.036,0.08,1.553c0.03,0.426,0.342,0.792,0.792,0.792
					c0.405,0,0.822-0.363,0.792-0.792c-0.077-1.104-0.114-2.214-0.118-3.32c-0.003-0.864,0.012-1.732,0.098-2.593
					c0.009-0.091,0.02-0.183,0.03-0.274c0.014-0.122-0.02,0.132-0.002,0.014c0.005-0.032,0.009-0.063,0.014-0.095
					c0.029-0.174,0.059-0.347,0.101-0.518c0.032-0.128,0.078-0.249,0.115-0.374c-0.039,0.133-0.036,0.109,0.005,0.004
					c0.051-0.129,0.07-0.085-0.018,0.005c0.135-0.139-0.114,0.092-0.04,0.023c-0.103,0.096-0.076,0.006,0.008,0.003
					c0.255-0.007-0.121-0.044,0.118-0.009c-0.04-0.006-0.126-0.03,0.018,0.012c0.132,0.039-0.014-0.015,0.056,0.025
					c0.044,0.025,0.088,0.051,0.129,0.081c0.104,0.073-0.112-0.114,0.046,0.044c0.078,0.077,0.152,0.156,0.223,0.24
					c0.079,0.094-0.068-0.096-0.003-0.002c0.028,0.04,0.056,0.081,0.083,0.122c0.055,0.085,0.108,0.172,0.153,0.263
					c0.189,0.383,0.732,0.489,1.083,0.284C198.462,195.228,198.545,194.758,198.355,194.374L198.355,194.374z"/>
			</g>
			<path style="fill:#142142;" d="M126.601,170.486l6.971,14.635c0,0,8.389-12.973,25.928-10.68c0,0,10.379-13.266,24.963-9.843
				l-7.253-14.657C177.21,149.941,145.973,144.694,126.601,170.486z"/>
			<path style="fill:#E37565;" d="M173.599,229.222c-5.3,0.613-9.836,0.137-13.625-0.982c0,0-0.003,0.002-0.003,0.002
				s2.624,6.379,0.904,14.117c0,0,4.97,19.43,12.552,23.9c0,0,10.833-12.036,13.24-23.385c0,0-0.276-11.779-1.811-18.163
				C182.002,226.96,178.309,228.677,173.599,229.222z"/>
			<path style="fill:#2D2D2D;" d="M186.667,242.875c0,0-0.276-11.779-1.811-18.163c-2.854,2.249-6.547,3.966-11.257,4.51
				c-5.3,0.613-9.836,0.137-13.625-0.982c0,0-0.003,0.002-0.003,0.002s0.804,1.963,1.23,5.026
				C166.957,233.103,180.874,233.714,186.667,242.875z"/>
			<g>
				<path style="fill:#EBB04B;" d="M206.383,193.338c-0.583,0-1.056-0.473-1.056-1.056v-47.76c0-0.583,0.473-1.055,1.056-1.055
					c0.583,0,1.055,0.473,1.055,1.055v47.76C207.439,192.865,206.966,193.338,206.383,193.338z"/>
			</g>
			<path style="fill:#142142;" d="M270.576,440.956c0,0-8.253-89.755-14.787-118.986c-6.534-29.231-11.689-52.959-37.482-64.995
				s-31.639-14.1-31.639-14.1c-2.407,11.348-13.24,23.385-13.24,23.385c-7.582-4.471-12.552-23.9-12.552-23.9
				s-19.716-8.3-34.274-17.648c-14.558-9.348-26.25-20.839-27.97-24.723c-1.719-3.883-5.158-4.984-5.158-4.984
				s-3.439-9.712-7.566-8.604c0,0-14.787-24.859-18.226-33.713c0,0-20.977,38.322-17.539,81.105c0,0,59.837,40.376,66.371,48.973
				c6.534,8.597-16.163,158.19-16.163,158.19H270.576z"/>
			<path style="fill:#E37565;" d="M67.681,152.688c0,0-9.17-16.878-11.005-25.361c-1.834-8.483-1.376-10.087-1.376-10.087
				s1.503-7.623-0.051-12.867c-1.554-5.244-3.691-10.746-5.488-10.976s-3.173,6.648-2.026,14.673c0,0-3.21,6.648-3.21,10.775
				l-8.712,10.546c0,0,8.712,26.092,12.38,37.921c1.981,6.388,4.629,13.882,6.648,19.427
				C60.14,166.478,67.681,152.688,67.681,152.688z"/>
			<path style="fill:#FFFAE3;" d="M10.366,125.952c0,0,29.345-18.522,41.382-30.582c12.036-12.06,20.29-25.816,20.29-25.816
				s14.214,2.98,16.278,15.131c0,0-46.54,34.389-66.944,60.983C21.37,145.669,8.302,143.147,10.366,125.952z"/>
			<path style="fill:#EAE3C3;" d="M28.244,121.596c5.044,0.688,10.417-1.777,17.13-7.422c5.049-4.246,6.171-12.302,7.392-19.84
				c-0.337,0.346-0.676,0.692-1.019,1.036c-7.573,7.588-21.994,17.731-31.651,24.212C22.289,120.303,25.411,121.21,28.244,121.596z"
				/>
			<path style="fill:#E37565;" d="M42.319,93.392c-1.719,0.321-3.267,3.674-3.267,3.674s-2.751,0.774-4.041,2.407
				c-1.29,1.633-1.719,3.353-1.719,3.353s-2.837,0.516-3.611,3.095c0,0-2.665,0.774-2.923,4.814
				c-0.258,4.041,1.204,8.081,2.493,7.824c1.29-0.258,1.375-2.149,1.375-2.149s0.688,1.376,2.235,0.774
				c1.548-0.602,1.72-3.009,1.72-3.009s0.4,1.204,1.876,0.86c1.476-0.344,2.336-4.385,2.336-4.385s0.516,2.149,2.407,0.946
				c1.891-1.204,3.066-6.104,3.095-8.855c0.006-0.6,0.321-1.011,0.321-1.011l4.612-3.885C49.229,97.844,44.038,93.071,42.319,93.392
				z"/>
			<path style="fill:#2D2D2D;" d="M39.052,97.065c0.088,2.299,0.054,4.539,0.028,6.792l-0.08,3.38
				c-0.042,1.13-0.078,2.262-0.206,3.412c-0.611-2.226-0.787-4.523-0.769-6.808c0.027-1.143,0.1-2.286,0.263-3.42
				C38.447,99.287,38.667,98.157,39.052,97.065z"/>
			<path style="fill:#2D2D2D;" d="M33.292,102.825c0.572,1.863,0.841,3.744,1.061,5.631c0.191,1.893,0.307,3.775,0.229,5.717
				c-0.39-0.898-0.633-1.835-0.832-2.772c-0.205-0.938-0.336-1.885-0.446-2.833C33.119,106.668,33.035,104.758,33.292,102.825z"/>
			<path style="fill:#2D2D2D;" d="M29.681,105.92c0.36,1.765,0.549,3.483,0.724,5.219c0.078,0.867,0.15,1.735,0.196,2.61
				c0.044,0.876,0.082,1.754,0.027,2.66c-0.741-1.65-1.088-3.406-1.272-5.171c-0.072-0.885-0.111-1.774-0.064-2.664
				C29.332,107.686,29.43,106.793,29.681,105.92z"/>
			<path style="fill:#2A3E68;" d="M93.473,195.005c1.318,3.756,2.482,7.525,3.689,11.287c1.173,3.773,2.413,7.512,3.533,11.333
				c-1.894-3.506-3.332-7.231-4.539-11.015C94.975,202.818,93.984,198.958,93.473,195.005z"/>
			<path style="fill:#2A3E68;" d="M98.631,199.989c0.5,1.109,0.962,2.227,1.478,3.324c0.48,1.11,0.972,2.214,1.483,3.309
				c1.021,2.189,2.033,4.378,3.11,6.533c1.067,2.161,2.214,4.276,3.377,6.386c0.613,1.035,1.199,2.092,1.869,3.094
				c0.601,1.053,1.328,2.014,1.979,3.046c-1.702-1.739-3.18-3.691-4.54-5.715c-1.342-2.036-2.53-4.169-3.63-6.341
				c-1.065-2.19-2.062-4.412-2.912-6.691C99.99,204.658,99.204,202.354,98.631,199.989z"/>
			<path style="fill:#EEFAFF;" d="M170.318,310.048c0,0,17.897-38.858,25.512-63.323c-7.096-3.12-9.163-3.85-9.163-3.85
				c-2.407,11.348-13.24,23.385-13.24,23.385c-7.582-4.471-12.552-23.9-12.552-23.9s-4.852-2.043-11.517-5.242
				C150.982,250.958,155.948,280.908,170.318,310.048z"/>
			<path style="fill:#2A3E68;" d="M116.513,282.766c-0.46-1.992-0.769-3.947-1.057-5.922c-0.133-0.988-0.267-1.975-0.364-2.973
				c-0.1-0.997-0.189-1.998-0.184-3.027c0.837,1.873,1.292,3.854,1.592,5.852c0.128,1.003,0.228,2.011,0.239,3.026
				C116.754,280.736,116.716,281.757,116.513,282.766z"/>
			<path style="fill:#EBB04B;" d="M201.969,202.996c0,0-1.05-18.374,3.78-18.794c4.83-0.42,5.145,18.794,5.145,18.794h-3.045
				l-0.735-5.938l-0.731,5.938H201.969z"/>
			<path style="fill:#FCC87C;" d="M206.526,184.32c-0.245-0.095-0.503-0.142-0.777-0.119c-4.83,0.42-3.78,18.794-3.78,18.794h2.387
				C203.376,188.018,205.813,184.901,206.526,184.32z"/>
			<g>
				<path style="fill:#070C21;" d="M216.489,440.956h17.331c-0.955-25.529-6.936-77.742-6.936-77.742
					C229.777,402.338,222.179,427.855,216.489,440.956z"/>
				<path style="fill:#070C21;" d="M171.058,363.366c-2.531,36.353-10.157,62.01-16.399,77.59h18.454L171.058,363.366z"/>
				<path style="fill:#070C21;" d="M116.513,282.766c-1.157-7.293-1.605-11.922-1.605-11.922
					c-15.356-16.048-64.766-37.051-64.766-37.051S109.979,274.169,116.513,282.766z"/>
			</g>
			<path style="fill:#2A3E68;" d="M222.432,321.97c1.478,9.856,2.774,19.737,4.011,29.625c1.236,9.888,2.319,19.795,3.392,29.703
				c0.989,9.917,1.924,19.841,2.651,29.783c0.708,9.939,1.302,19.907,1.123,29.876c-0.107-2.491-0.151-4.98-0.281-7.466
				c-0.156-2.486-0.281-4.972-0.463-7.455l-0.545-7.449l-0.643-7.442c-0.894-9.919-1.82-19.836-2.89-29.739
				c-0.985-9.912-2.083-19.813-3.146-29.718L222.432,321.97z"/>
			<path style="fill:#2A3E68;" d="M170.318,310.048c0.468,10.904,0.82,21.811,1.154,32.718l0.873,32.724l0.629,32.73l0.228,16.367
				l0.117,16.369l-0.634-16.358l-0.522-16.36l-0.871-32.724l-0.627-32.73C170.498,331.874,170.35,320.962,170.318,310.048z"/>
			<path style="fill:#101C35;" d="M177.21,149.941c0,0-8.172-1.363-18.744,0.744c5.223,2.152,10.527,6.466,13.057,14.944
				c3.696-1.456,8.083-2.171,12.94-1.031L177.21,149.941z"/>
			<path style="fill:#24365B;" d="M133.334,163.107c-2.347,2.126-4.614,4.557-6.733,7.379l6.971,14.635c0,0,2.036-3.141,6.191-6.06
				C135.641,172.095,133.924,166.858,133.334,163.107z"/>
			<path style="fill:#BED9E5;" d="M193.295,205.09c-3.297-0.349-8.092-0.81-12.737-1.092c1.689,5.589,2.375,13.751-1.641,23.992
				c10.22-3.667,13.987-13.548,14.284-18.301C193.281,208.409,193.312,206.817,193.295,205.09z"/>
		</g>
		<g>
			<path style="fill:#EBB04B;" d="M400.339,157.862c0,0-1.017-17.801,3.662-18.208c4.679-0.407,4.984,18.208,4.984,18.208h-2.95
				l-0.712-5.753l-0.708,5.753H400.339z"/>
			<path style="fill:#FCC87C;" d="M404.753,139.768c-0.238-0.092-0.487-0.138-0.752-0.115c-4.679,0.407-3.662,18.208-3.662,18.208
				h2.313C401.701,143.351,404.062,140.331,404.753,139.768z"/>
			<g>
				<path style="fill:#EBB04B;" d="M404.404,141.623c-0.565,0-1.023-0.458-1.023-1.023v-38.869c0-0.565,0.457-1.023,1.023-1.023
					c0.565,0,1.023,0.458,1.023,1.023V140.6C405.426,141.165,404.969,141.623,404.404,141.623z"/>
			</g>
			<path style="fill:#070C21;" d="M351.814,94.53l-32.266,38.431c-0.82,0.976,0.011,2.446,1.27,2.248l44.762-7.044
				c0.195-0.031,0.381-0.103,0.545-0.211l39.43-26.028c1.081-0.713,0.67-2.388-0.618-2.521l-51.925-5.359
				C352.556,93.998,352.108,94.18,351.814,94.53z"/>
			<path style="fill:#2D231A;" d="M367.931,124.232c0,0-15.004,2.443-21.606,16.658c-6.602,14.215-4.603,33.316-10.822,49.974
				c0,0,11.074,17.102,41.962,14.881s40.661-13.548,40.661-13.548s-1.292-8.104-2.665-18.548
				c-1.374-10.443-5.775-34.092-12.216-42.532C396.805,122.677,384.589,120.234,367.931,124.232z"/>
			<path style="fill:#E37565;" d="M390.808,129.285c0,0-2.165,14.492-18.657,24.154c0,0,3.998-4.331,5.664-13.493
				c0,0-6.83,11.827-17.991,16.491c0,0,5.164-4.664,7.663-9.329c0,0-12.993,9.162-15.492,17.658c0,0,5.331,15.825,8.829,20.989
				c3.498,5.164,13.659,10.161,24.987,7.663c10.767-2.375,17.491-7.329,20.156-18.824
				C408.632,163.101,406.633,141.612,390.808,129.285z"/>
			<path style="fill:#E37565;" d="M351.995,164.767c0,0-4.331-2.332-5.497,3.831c-1.166,6.163,3.667,17.609,11.745,12.303
				c0,0,0,0,0,0C355.181,174.222,351.995,164.767,351.995,164.767z"/>
			<path style="fill:#E37565;" d="M411.464,152.606c-3.498-1.666-5.797,1.081-5.797,1.081l-0.001,0.001
				c1.36,6.016,1.546,11.901,0.995,16.763c0,0,0,0,0,0C417.018,169.808,414.962,154.272,411.464,152.606z"/>
			<path style="fill:#DBECF5;" d="M379.474,166.599c-7.335,1.166-21.231,14.301-21.232,14.302c0.899,1.96,1.787,3.683,2.581,4.855
				c3.498,5.164,13.659,10.161,24.987,7.663c10.767-2.375,17.491-7.329,20.156-18.824c0.294-1.266,0.526-2.659,0.695-4.142
				C406.659,170.452,386.809,165.433,379.474,166.599z"/>
			<path style="fill:#2D2D2D;" d="M367.492,163.289c1.052,2.651,0.726,5.267-0.728,5.844c-1.454,0.577-3.485-1.104-4.537-3.755
				c-1.052-2.651-0.726-5.268,0.727-5.844C364.408,158.957,366.44,160.638,367.492,163.289z"/>
			<path style="fill:#2D2D2D;" d="M395.611,156.422c0.874,2.715,0.375,5.304-1.113,5.783c-1.489,0.479-3.404-1.333-4.278-4.048
				c-0.874-2.715-0.375-5.304,1.113-5.783C392.822,151.895,394.737,153.707,395.611,156.422z"/>
			<g>
				<path style="fill:#2D2D2D;" d="M349.708,171.763c-0.003-0.07-0.001-0.141,0-0.211c0.002-0.072,0.006-0.145,0.011-0.217
					c0.003-0.038,0.007-0.076,0.01-0.114c0.004-0.041,0.008-0.082,0.013-0.123c-0.012,0.085-0.013,0.098-0.004,0.04
					c0.038-0.226,0.087-0.451,0.168-0.667c0.008-0.02,0.06-0.132,0.009-0.024c0.021-0.045,0.044-0.089,0.068-0.133
					c0.082-0.151,0.027-0.089,0.169-0.223c-0.041,0.039,0.151-0.099,0.067-0.061c0.151-0.067,0.208-0.04,0.292-0.057
					c0.216-0.044-0.156-0.038,0.049,0.008c-0.154-0.034-0.051-0.047,0.048,0.042c0.078,0.071-0.103-0.114,0.025,0.027
					c0.058,0.065,0.121,0.127,0.181,0.191c0.142,0.153-0.022-0.047,0.08,0.102c0.068,0.099,0.136,0.198,0.199,0.3
					c1.105,1.774,1.699,3.892,2.294,5.927c0.168,0.573,0.331,1.148,0.477,1.727c0.242,0.956,1.722,0.551,1.479-0.408
					c-0.444-1.75-0.977-3.488-1.616-5.176c-0.593-1.566-1.967-5.528-4.364-3.943c-0.935,0.618-1.23,1.936-1.19,2.993
					C348.211,172.747,349.745,172.752,349.708,171.763L349.708,171.763z"/>
			</g>
			<g>
				<path style="fill:#2D2D2D;" d="M412.314,157.086c-0.28-1.022-1.002-2.084-2.073-2.362c-1.175-0.305-1.892,0.4-2.094,1.489
					c-0.202,1.09-0.157,2.224-0.09,3.325c0.073,1.208,0.203,2.413,0.36,3.613c0.094,0.719,0.191,1.438,0.309,2.153
					c0.067,0.409,0.574,0.637,0.944,0.536c0.434-0.119,0.603-0.533,0.536-0.943c-0.237-1.44-0.387-2.645-0.523-4.16
					c-0.094-1.052-0.167-2.113-0.134-3.17c0.007-0.218,0.021-0.434,0.039-0.651c0.004-0.047,0.009-0.094,0.015-0.141
					c0.014-0.122-0.019,0.12-0.001,0.003c0.016-0.102,0.033-0.204,0.056-0.305c0.016-0.072,0.037-0.143,0.056-0.215
					c0.013-0.051,0.113-0.294,0.016-0.065c0.018-0.044,0.047-0.11,0.082-0.144c-0.002,0.002-0.136,0.143-0.051,0.069
					c0.095-0.083-0.166,0.098-0.053,0.036c-0.027,0.015-0.14,0.01-0.075,0.037c0.091,0.038,0.244,0.014,0.336,0.051
					c0.162,0.064,0.361,0.272,0.449,0.391c0.082,0.111,0.152,0.235,0.217,0.357c0.03,0.058,0.158,0.355,0.097,0.198
					c0.039,0.101,0.077,0.202,0.105,0.307C411.096,158.444,412.576,158.04,412.314,157.086L412.314,157.086z"/>
			</g>
			<path style="fill:#142142;" d="M338.835,125.287l7.49,15.603c0,0,5.17-9.495,26.159-7.802c0,0,3.381-8.857,20.431-9.162
				l-6.938-18.795C385.977,105.131,354.16,103.965,338.835,125.287z"/>
			<path style="fill:#E37565;" d="M397.711,188.414c-3.177,2.398-7.142,3.955-11.9,5.004c-5.243,1.157-10.227,0.695-14.425-0.633
				c-0.002,0.001-0.015,0.008-0.015,0.008s0.916,8.954-1.262,15.84c0,0,3.052,17.102,10.432,20.878c0,0,11.404-4.983,14.932-23.566
				c0,0-1.301-5.974,2.237-17.523C397.71,188.418,397.71,188.417,397.711,188.414z"/>
			<path style="fill:#2D2D2D;" d="M371.559,197.413c4.147-0.216,16.275-0.034,23.913,8.532c0,0-1.301-5.974,2.237-17.523
				c0.001-0.003,0.001-0.004,0.002-0.007c-3.177,2.398-7.142,3.955-11.9,5.004c-5.243,1.157-10.227,0.695-14.425-0.633
				c-0.002,0.001-0.015,0.008-0.015,0.008S371.562,194.697,371.559,197.413z"/>
			<path style="fill:#EEFAFF;" d="M395.472,205.944c-3.528,18.584-14.932,23.566-14.932,23.566
				c-7.38-3.776-10.432-20.878-10.432-20.878l-7.18,1.777c0,0-0.107,28.874,13.886,55.305c0,0,15.319-15.103,28.538-53.305
				L395.472,205.944z"/>
			<g>
				<path style="fill:#142142;" d="M449,235.829c-9.773-11.205-43.647-23.421-43.647-23.421
					c-13.218,38.202-28.538,53.305-28.538,53.305c-13.993-26.431-13.886-55.305-13.886-55.305s-27.87,7.996-38.753,15.325
					s-40.312,111.608-40.312,111.608l-12.993,72.518c0,0,9.773,18.213,38.202,18.213l-0.444,12.882h147.034
					c0,0-4.886-37.314-7.552-81.291c0,0,17.768-1.333,17.324-23.543C464.991,313.911,458.772,247.034,449,235.829z"/>
			</g>
			<g>
				<path style="fill:#070C21;" d="M315.017,342.354c-5.718,31.026-17.197,64.944-23.74,82.928
					c4.882,1.676,10.767,2.792,17.796,2.792C309.517,415.192,315.017,342.354,315.017,342.354z"/>
				<path style="fill:#070C21;" d="M449.457,379.152c-0.483-6.271-0.94-12.8-1.345-19.487c-17.324,0-60.412-7.539-60.412-7.539
					C406.946,358.714,433.896,371.499,449.457,379.152z"/>
				<path style="fill:#070C21;" d="M371.371,370.098c-0.514,31.477-8.173,55.622-14.885,70.858h14.885V370.098z"/>
			</g>
			<path style="fill:#2A3E68;" d="M309.073,428.074c0.678-11.898,1.468-23.788,2.275-35.677l2.546-35.656l2.782-35.639l1.475-17.814
				l1.583-17.806l-1.083,17.842l-1.19,17.834l-2.548,35.657l-2.784,35.64C311.158,404.332,310.172,416.207,309.073,428.074z"/>
			<path style="fill:#2A3E68;" d="M448.111,359.665c-10.03-0.955-20.057-1.96-30.064-3.138c-10.006-1.193-20.01-2.427-29.973-3.976
				l-0.372-0.058l-0.003-0.367c-0.039-5.378,0.43-10.704,1.198-15.999c0.785-5.29,1.947-10.524,3.46-15.655
				c1.47-5.147,3.477-10.134,5.821-14.944l1.823-3.579l2.065-3.447l1.037-1.72l1.164-1.638l2.328-3.276l0.241-0.34l0.363,0.234
				l22.882,14.756l-0.52,0.257c0.515-6.345,0.648-12.735,0.571-19.11c-0.104-6.377-0.538-12.758-1.566-19.063
				c1.16,6.282,1.731,12.666,1.969,19.053c0.118,3.194,0.155,6.392,0.098,9.589c-0.055,3.198-0.171,6.39-0.397,9.589l-0.04,0.561
				l-0.481-0.304l-23.006-14.562l0.604-0.106l-2.286,3.246l-1.143,1.623l-1.018,1.705l-2.028,3.414l-1.788,3.547
				c-0.29,0.595-0.614,1.174-0.876,1.782l-0.78,1.827c-0.503,1.225-1.078,2.421-1.522,3.669l-1.348,3.738
				c-0.451,1.246-0.794,2.528-1.197,3.79c-1.519,5.077-2.691,10.262-3.491,15.507c-0.783,5.239-1.268,10.557-1.25,15.832
				l-0.374-0.425c9.944,1.567,19.916,2.988,29.906,4.276C428.109,357.233,438.101,358.524,448.111,359.665z"/>
			<path style="fill:#2A3E68;" d="M455.663,325.683c-0.8-1.116-1.613-2.211-2.507-3.244c-0.859-1.057-1.771-2.069-2.709-3.052
				c-1.891-1.95-3.898-3.779-6.054-5.411c-2.126-1.675-4.452-3.073-6.864-4.296l-1.831-0.885l-1.903-0.723
				c-0.317-0.124-0.63-0.262-0.951-0.377l-0.979-0.29c-0.655-0.189-1.309-0.391-1.966-0.603c2.707,0.391,5.439,1.002,7.96,2.163
				c0.32,0.133,0.647,0.253,0.962,0.397l0.921,0.48c0.608,0.331,1.241,0.622,1.831,0.986c1.177,0.733,2.347,1.479,3.44,2.334
				c2.193,1.692,4.231,3.588,6.015,5.698C452.81,320.969,454.429,323.224,455.663,325.683z"/>
			<path style="fill:#2A3E68;" d="M314.403,276.153c0.533,2.383,0.955,4.781,1.36,7.181c0.417,2.399,0.754,4.808,1.09,7.217
				c0.313,2.413,0.623,4.825,0.855,7.249l0.344,3.636c0.078,1.217,0.19,2.429,0.238,3.65c-0.277-1.19-0.488-2.389-0.734-3.583
				l-0.627-3.597c-0.416-2.399-0.753-4.808-1.089-7.217c-0.311-2.413-0.622-4.825-0.854-7.249
				C314.744,281.016,314.518,278.592,314.403,276.153z"/>
			<path style="fill:#2A3E68;" d="M376.815,265.714l-2.161,43.796c-0.688,14.599-1.378,29.198-1.927,43.801
				c-0.639,14.6-1.076,29.207-1.428,43.815l-0.219,10.957l-0.086,10.958L371.041,430c0.054,3.652,0.223,7.302,0.329,10.956
				c-1.006-14.588-1.034-29.228-0.858-43.844c0.19-14.62,0.635-29.234,1.194-43.842c0.634-14.605,1.309-29.208,2.165-43.802
				l1.358-21.885L376.815,265.714z"/>
			<path style="fill:#E37565;" d="M283.098,421.517c0,0,2.931,7.778,5.263,11.609s5.164,5.331,7.496,4.997
				c2.332-0.333,1.333-5.497,1.333-5.497s3.668-0.522,4.332-5.009C301.523,427.618,289.646,426.372,283.098,421.517z"/>
			<path style="fill:#FFFAE3;" d="M385.255,282.15c0,0,6.219-17.546,9.995-30.873c3.776-13.326,3.776-13.326,3.776-13.326
				s17.324,0,22.877,10.883c0,0-24.432,38.647-31.095,54.194c-6.663,15.547-13.993,45.754-13.993,45.754
				s-17.991-0.444-21.989-13.104C354.827,335.677,376.355,309.266,385.255,282.15z"/>
			<path style="fill:#EAE3C3;" d="M386.072,315.939c1.546-4.727,3.159-9.231,4.736-12.911c3.587-8.369,12.32-23.427,19.622-35.552
				c-9.267,4.508-16.605,5.308-21.803,4.86c-1.922,5.724-3.372,9.814-3.372,9.814c-4.393,13.384-11.86,26.589-18.299,36.539
				C374.593,317.215,381.226,316.393,386.072,315.939z"/>
			<path style="fill:#E37565;" d="M406.954,292.145c0,0-4.375-6.219-6.374-9.551c-1.999-3.331-6.441-3.331-9.773-2.665
				s-5.775-1.333-9.328,0.666c-3.554,1.999-3.243,5.336-4.664,6.885c-1.421,1.55-1.555,1.333-3.776,4.664
				c-2.221,3.332-2.752,7.107-2.931,9.106c-0.179,1.999,10.141,11.378,24.415,14.129
				C394.524,315.38,400.001,299.696,406.954,292.145z"/>
			<g>
				<path style="fill:#2D2D2D;" d="M385.083,144.486c-0.236,0.188,0.014-0.008,0.12-0.083c0.226-0.159,0.46-0.309,0.697-0.451
					c0.756-0.453,1.554-0.831,2.39-1.11c2.529-0.842,5.151-0.671,7.461,0.705c0.85,0.507,1.622-0.819,0.774-1.325
					c-3.934-2.344-9.002-1.625-12.527,1.178C383.226,144.016,384.318,145.095,385.083,144.486L385.083,144.486z"/>
			</g>
			<path style="fill:#101C35;" d="M382.525,125.488c2.715-0.874,6.125-1.486,10.39-1.562l-6.938-18.795c0,0-8.208-0.295-18.29,2.201
				C374.179,109.896,382.342,115.173,382.525,125.488z"/>
			<path style="fill:#24365B;" d="M343.826,119.604c-1.792,1.692-3.475,3.574-4.991,5.684l7.49,15.603c0,0,1.122-2.055,4.431-4.082
				C344.509,129.631,343.513,123.534,343.826,119.604z"/>
			<path style="fill:#BED9E5;" d="M395.298,167.992c0.388,6.692-0.693,17.779-10.244,25.563c0.253-0.049,0.503-0.081,0.757-0.137
				c10.767-2.375,17.491-7.329,20.156-18.824c0.294-1.266,0.526-2.659,0.695-4.142C406.66,170.452,401.4,169.123,395.298,167.992z"
				/>
			<g>
				
					<ellipse transform="matrix(0.2285 -0.9735 0.9735 0.2285 119.2568 480.6933)" style="fill:none;stroke:#2D2D2D;stroke-miterlimit:10;" cx="362.929" cy="165.1" rx="12.438" ry="12.438"/>
				<circle style="fill:none;stroke:#2D2D2D;stroke-miterlimit:10;" cx="392.915" cy="157.29" r="12.438"/>
				<path style="fill:none;stroke:#2D2D2D;stroke-miterlimit:10;" d="M374.391,160.261c0,0,2.212-4.148,6.15-1.709"/>
			</g>
		</g>
	</g>
</g>
</svg>
